<svg width="70" height="48" viewBox="0 0 70 48" fill="none" xmlns="http://www.w3.org/2000/svg">
<g id="Leadership 1" clip-path="url(#clip0_4574_2835)">
<path id="Vector" d="M69.3715 43.4873V41.7188C69.3715 41.718 69.3715 41.7172 69.3715 41.7159C69.3715 41.5168 69.3595 41.3206 69.342 41.1256C69.3382 41.0831 69.3345 41.0406 69.3299 40.9985C69.3091 40.8094 69.2811 40.6223 69.2445 40.4386C69.2382 40.4065 69.2299 40.3753 69.2232 40.3436C69.187 40.1762 69.1445 40.0108 69.0957 39.8483C69.0866 39.8183 69.0787 39.7875 69.0695 39.7579C69.0137 39.5817 68.9499 39.4092 68.88 39.2396C68.8641 39.2013 68.8475 39.1634 68.8308 39.1255C68.7562 38.9543 68.6771 38.7855 68.5887 38.6227C68.5862 38.6185 68.5838 38.6143 68.5813 38.6097C68.4942 38.4502 68.3984 38.2956 68.2984 38.1444C68.2755 38.1098 68.253 38.0752 68.2296 38.0411C68.128 37.8932 68.0209 37.749 67.9072 37.6099C67.8855 37.5832 67.8626 37.5582 67.8405 37.532C67.7355 37.4078 67.6264 37.2874 67.5127 37.1712C67.4902 37.1483 67.4689 37.1245 67.446 37.1021C67.3189 36.9758 67.1856 36.8563 67.0486 36.7409C67.0161 36.7134 66.9827 36.6867 66.9494 36.66C66.8078 36.5455 66.6628 36.4347 66.5116 36.3322C66.5111 36.3318 66.5103 36.3313 66.5099 36.3313C66.5003 36.3247 66.4903 36.3193 66.4807 36.313C66.342 36.2201 66.1979 36.1343 66.0516 36.0522C65.9941 36.0197 65.9362 35.9885 65.8775 35.9581C65.8454 35.9414 65.8142 35.9227 65.7817 35.9064V35.9122C65.5755 35.8089 65.3634 35.7169 65.1455 35.6352C65.1468 35.6335 65.148 35.631 65.1493 35.6294C65.0926 35.6081 65.033 35.5927 64.9755 35.5731C64.8843 35.5419 64.7931 35.5106 64.7002 35.4836C64.5985 35.4536 64.4952 35.429 64.3919 35.404C64.3927 35.4027 64.394 35.4006 64.3948 35.3994C64.3552 35.3898 64.3144 35.3827 64.2748 35.374C64.2203 35.3619 64.1661 35.3498 64.1111 35.3394C64.079 35.3332 64.0474 35.3257 64.0149 35.3202C63.8732 35.2948 63.7295 35.2753 63.5845 35.259C63.5566 35.2561 63.5287 35.2523 63.5008 35.2498C63.465 35.2465 63.4287 35.2444 63.3929 35.2415C63.3108 35.2348 63.2287 35.2298 63.1458 35.2261L63.1512 35.2178H62.8713H61.1849V32.8135C62.5493 32.3569 63.6495 31.3254 64.1948 30.004C64.279 29.9211 64.3573 29.8332 64.4369 29.7461C64.4815 29.7499 64.5244 29.7594 64.5698 29.7594C65.4517 29.7594 66.1666 29.0445 66.1666 28.1626C66.1666 27.8189 66.0558 27.5027 65.8713 27.2423C66.0546 26.6395 66.1545 26.0008 66.1545 25.338C66.1545 25.1172 66.1429 24.8989 66.1216 24.684C66.1216 24.684 66.122 24.684 66.122 24.6835C66.122 24.6823 66.1216 24.681 66.1216 24.6798C66.115 24.6119 66.1008 24.5465 66.092 24.479C66.0729 24.3349 66.0546 24.1903 66.0262 24.0491C66.0087 23.962 65.9841 23.8778 65.9633 23.792C65.9346 23.6737 65.9075 23.555 65.8725 23.4392C65.8454 23.3496 65.8121 23.2633 65.7813 23.1759C65.7434 23.068 65.7067 22.9592 65.6634 22.8542C65.6271 22.7663 65.5859 22.6809 65.5459 22.5951C65.4992 22.4943 65.453 22.3935 65.4017 22.2956C65.3572 22.211 65.3084 22.1294 65.2605 22.0473C65.2055 21.9531 65.1501 21.859 65.0905 21.7673C65.0385 21.6873 64.983 21.6103 64.9272 21.5328C64.8639 21.4445 64.7997 21.357 64.7323 21.272C64.6731 21.1974 64.6114 21.1253 64.5494 21.0537C64.4781 20.9716 64.4056 20.8912 64.3307 20.8129C64.2648 20.7446 64.1978 20.6779 64.1294 20.6125C64.0507 20.5371 63.9703 20.4642 63.8878 20.3925C63.8166 20.3309 63.7445 20.2705 63.6708 20.2117C63.5845 20.1434 63.4962 20.0784 63.4066 20.0143C63.3304 19.9601 63.2546 19.9064 63.1758 19.8551C63.0821 19.7943 62.9863 19.7372 62.8892 19.681C62.8092 19.6343 62.7296 19.5877 62.6476 19.5448C62.5468 19.4918 62.443 19.4439 62.3389 19.396C62.256 19.3577 62.1739 19.3185 62.0889 19.284C61.9793 19.239 61.8669 19.2006 61.7544 19.1615C61.6706 19.1323 61.5886 19.1011 61.5036 19.0757C61.3832 19.0394 61.2599 19.0107 61.1366 18.9811C61.0553 18.9615 60.9758 18.9386 60.8937 18.9223C60.7545 18.8949 60.6121 18.8765 60.47 18.8578C60.4004 18.8486 60.3325 18.8349 60.2625 18.8282C60.0488 18.807 59.8322 18.7953 59.6126 18.7953C59.4047 18.7953 59.2002 18.8074 58.9973 18.8265C58.9336 18.8324 58.8711 18.8424 58.8078 18.8499C58.6682 18.8669 58.5299 18.8874 58.3932 18.9132C58.3228 18.9265 58.2533 18.9411 58.1833 18.9565C58.0704 18.9819 57.9587 19.0098 57.8483 19.0407C57.8483 19.0398 57.8479 19.0386 57.8479 19.0377C57.8233 19.0448 57.7996 19.054 57.775 19.0615C57.7171 19.0786 57.6592 19.0948 57.6017 19.1132C57.5313 19.1361 57.4617 19.1606 57.3925 19.1856C57.3442 19.2031 57.2971 19.2219 57.2492 19.2406C57.218 19.2527 57.1863 19.264 57.1555 19.2765C57.1205 19.2906 57.0843 19.3023 57.0497 19.3169C57.0009 19.3377 56.9547 19.3615 56.9068 19.3835C56.8589 19.4052 56.8118 19.4285 56.7647 19.4514C56.6852 19.4902 56.6048 19.5273 56.5268 19.5689C56.4919 19.5877 56.4581 19.6081 56.4235 19.6272C56.3819 19.6506 56.3415 19.6756 56.3006 19.6997C56.2081 19.7543 56.1165 19.8097 56.0269 19.8685C55.969 19.9064 55.9128 19.9464 55.8561 19.9859C55.8045 20.0222 55.7507 20.0555 55.7003 20.093C55.7007 20.0955 55.7011 20.098 55.7016 20.1005C55.6332 20.1513 55.5633 20.2009 55.497 20.2546C55.4304 20.3084 55.3679 20.3667 55.3033 20.4234C55.2216 20.495 55.1408 20.5663 55.0629 20.6417C55 20.7029 54.9396 20.7658 54.8788 20.8296C54.8042 20.9079 54.7317 20.9874 54.6609 21.0691C54.6051 21.1337 54.5501 21.1987 54.4967 21.2653C54.4247 21.3561 54.3559 21.4495 54.2884 21.5436C54.2439 21.6061 54.1976 21.6678 54.1551 21.7319C54.1418 21.7519 54.1276 21.7711 54.1147 21.7911C54.1301 21.7019 54.1422 21.6111 54.1422 21.5174C54.1422 20.6371 53.4286 19.923 52.5479 19.923H53.5523C53.9148 19.923 54.2089 19.6293 54.2089 19.2665V18.3912C54.2089 18.0541 53.9535 17.7796 53.6265 17.7421C53.4886 15.0571 51.603 12.8404 49.0818 12.203L49.0938 12.0463C49.1138 11.7918 48.9126 11.5747 48.6576 11.5747H46.5401C46.2851 11.5747 46.0839 11.7918 46.1039 12.0463L46.116 12.203C45.911 12.2546 45.711 12.3167 45.5148 12.3888C45.5185 12.2738 45.5235 12.1592 45.5235 12.0438C45.5235 11.571 45.4898 11.1069 45.4306 10.6503C45.4219 10.5832 45.4148 10.5161 45.4052 10.4495C45.3906 10.3503 45.3719 10.252 45.3544 10.1537C45.3415 10.0812 45.3298 10.0087 45.3157 9.93665C45.2969 9.84125 45.2744 9.74709 45.2532 9.65294C45.2365 9.5792 45.2207 9.50547 45.2023 9.43298C45.1794 9.34049 45.1536 9.24926 45.1278 9.1576C45.1074 9.08428 45.0874 9.01096 45.0657 8.93847C45.0386 8.84848 45.0095 8.75975 44.9799 8.67143C44.9557 8.59852 44.9316 8.52562 44.9061 8.45313C44.8753 8.36606 44.8424 8.27982 44.8095 8.194C44.782 8.12193 44.7541 8.05069 44.7249 7.97945C44.6899 7.89446 44.6541 7.81073 44.617 7.72657C44.5858 7.65575 44.5541 7.58535 44.5216 7.51536C44.4833 7.43329 44.4441 7.35163 44.4037 7.27081C44.3691 7.20124 44.3337 7.13208 44.2975 7.06334C44.2558 6.98377 44.2133 6.90462 44.1696 6.8263C44.1317 6.75797 44.0925 6.69048 44.0529 6.62341C44.0079 6.54676 43.9625 6.4701 43.9159 6.39469C43.8742 6.32762 43.8313 6.2618 43.7884 6.19556C43.7405 6.12182 43.6926 6.04808 43.643 5.97601C43.598 5.9106 43.5514 5.84644 43.5051 5.78187C43.4543 5.71105 43.4035 5.63981 43.351 5.57024C43.3026 5.5065 43.2526 5.44442 43.2031 5.38193C43.1493 5.31403 43.096 5.2457 43.0406 5.17946C42.9885 5.11697 42.9344 5.05657 42.881 4.99533C42.8252 4.93117 42.7702 4.86618 42.7127 4.80369C42.6544 4.73995 42.594 4.67871 42.5344 4.61664C42.479 4.55914 42.4249 4.5004 42.3686 4.44374C42.2532 4.32876 42.1357 4.2167 42.0153 4.10671C41.967 4.06255 41.9162 4.02089 41.8666 3.97756C41.7908 3.91091 41.715 3.84342 41.6371 3.77885C41.5804 3.73177 41.5221 3.68761 41.4646 3.64178C41.3913 3.58346 41.3188 3.52472 41.2438 3.46848C41.183 3.42265 41.1205 3.37891 41.0584 3.33433C40.9847 3.28101 40.9113 3.22768 40.8364 3.17644C40.7722 3.1327 40.7068 3.09104 40.6422 3.04854C40.5668 2.99938 40.491 2.94981 40.4143 2.90231C40.3485 2.86149 40.2814 2.82274 40.2148 2.78358C40.1365 2.73776 40.0586 2.69193 39.979 2.64777C39.9111 2.61027 39.8423 2.57445 39.7736 2.5382C39.6932 2.49571 39.6124 2.45405 39.5303 2.41364C39.4611 2.37948 39.3912 2.34657 39.3212 2.31366C39.2379 2.27491 39.1541 2.23658 39.0695 2.19992C38.9987 2.16909 38.9279 2.1391 38.8562 2.10993C38.7704 2.07494 38.6842 2.04078 38.5971 2.00787C38.525 1.98037 38.453 1.95371 38.3801 1.92788C38.2917 1.89664 38.203 1.86664 38.1134 1.83789C38.0401 1.81415 37.9672 1.7904 37.8931 1.76832C37.8022 1.74083 37.7102 1.71541 37.6181 1.69C37.5448 1.67 37.4715 1.64959 37.3973 1.63126C37.3027 1.60751 37.2069 1.58627 37.1111 1.56544C37.0382 1.54919 36.9653 1.53252 36.892 1.51794C36.7928 1.49836 36.6924 1.48128 36.592 1.4642C36.5208 1.45212 36.4499 1.43921 36.3783 1.42838C36.2721 1.41254 36.165 1.40046 36.0579 1.38755C35.9904 1.37963 35.9238 1.37005 35.8559 1.36338C35.7351 1.3513 35.6134 1.34339 35.4918 1.33547C35.4368 1.33214 35.3822 1.32672 35.3272 1.32381C35.1493 1.31506 34.9702 1.31006 34.7898 1.31006C34.7885 1.31006 34.7877 1.31006 34.7864 1.31006C34.5186 1.31006 34.2536 1.32339 33.9903 1.34255C33.9357 1.34672 33.8816 1.35005 33.8274 1.35505C33.5725 1.37797 33.32 1.40838 33.0705 1.44879C33.0251 1.45629 32.9801 1.46503 32.9347 1.47295C32.7001 1.51378 32.4681 1.56169 32.2393 1.61751C32.2098 1.62501 32.1794 1.63084 32.1498 1.63834C32.0644 1.66001 31.9798 1.68458 31.8952 1.70833C31.8948 1.70833 31.8948 1.70833 31.8944 1.70875C31.7365 1.75291 31.5803 1.8004 31.4257 1.85123C31.3753 1.86789 31.3253 1.88497 31.2753 1.90205C31.0387 1.98412 30.8046 2.07244 30.5758 2.17034C30.5504 2.18118 30.5259 2.19326 30.5009 2.20409C30.2855 2.29782 30.0747 2.39947 29.8672 2.50696C29.8293 2.52654 29.791 2.54529 29.7535 2.56528C29.6668 2.61153 29.5814 2.65985 29.4964 2.70818C29.4943 2.70943 29.4923 2.71068 29.4906 2.71151C29.3644 2.78358 29.2394 2.85732 29.1165 2.93398C29.0752 2.95981 29.0348 2.98605 28.9944 3.0123C28.6766 3.21685 28.3704 3.43682 28.0766 3.67261C28.0758 3.67345 28.0746 3.67428 28.0737 3.67511C27.8563 3.84967 27.6463 4.03297 27.4434 4.22336C27.4326 4.23336 27.4222 4.24377 27.4113 4.25419C27.0126 4.63205 26.6427 5.0399 26.3057 5.47484C26.2932 5.49067 26.2807 5.50608 26.2686 5.52191C26.1074 5.7323 25.9541 5.94893 25.8087 6.17098C25.7916 6.19722 25.7749 6.22347 25.7583 6.24972C25.4708 6.69715 25.2158 7.16707 24.9959 7.65658C24.9805 7.69116 24.9642 7.72491 24.9492 7.75948C24.8467 7.99445 24.7526 8.23441 24.6668 8.47771C24.6522 8.51937 24.6384 8.56144 24.6243 8.60311C24.5393 8.85473 24.4605 9.10886 24.3939 9.3684C24.3939 9.36924 24.3935 9.37007 24.3935 9.3709C24.3276 9.62711 24.2743 9.88791 24.2277 10.1508C24.2193 10.1983 24.2102 10.2458 24.2022 10.2933C24.1602 10.5486 24.1277 10.8073 24.1039 11.0686C24.0993 11.1186 24.0964 11.169 24.0927 11.2194C24.0718 11.4914 24.0581 11.7655 24.0581 12.043C24.0581 12.1588 24.0631 12.273 24.0668 12.3879C23.871 12.3159 23.6707 12.2542 23.4661 12.2021L23.4782 12.0455C23.4982 11.7909 23.297 11.5739 23.042 11.5739H20.9248C20.6699 11.5739 20.4687 11.7909 20.4886 12.0455L20.5007 12.2021C17.9795 12.8395 16.0939 15.0563 15.956 17.7413C15.629 17.7788 15.3736 18.0533 15.3736 18.3903V19.2656C15.3736 19.6281 15.6677 19.9222 16.0302 19.9222H17.0346C16.1543 19.9222 15.4403 20.6358 15.4403 21.5165C15.4403 21.6115 15.4523 21.7032 15.4682 21.794C15.4619 21.7844 15.4548 21.7757 15.449 21.7665C15.3969 21.6865 15.3411 21.609 15.2857 21.5315C15.2224 21.4432 15.1586 21.3561 15.0911 21.2712C15.0316 21.1966 14.9703 21.1241 14.9078 21.052C14.8366 20.9704 14.7645 20.89 14.6895 20.8116C14.6237 20.7429 14.5566 20.6762 14.4879 20.6104C14.4092 20.5354 14.3288 20.4625 14.2467 20.3913C14.1755 20.3296 14.1034 20.2692 14.0292 20.2105C13.943 20.1422 13.8547 20.0772 13.7651 20.013C13.6889 19.9589 13.6126 19.9051 13.5343 19.8539C13.4406 19.793 13.3447 19.736 13.2477 19.6797C13.1677 19.6331 13.0881 19.5864 13.0056 19.5431C12.9048 19.4902 12.8011 19.4423 12.6973 19.3944C12.6144 19.3565 12.5324 19.3169 12.4474 19.2819C12.3378 19.2369 12.2253 19.1986 12.1133 19.1594C12.0295 19.1307 11.9475 19.099 11.8621 19.0736C11.7417 19.0373 11.6183 19.0086 11.4955 18.9794C11.4142 18.9598 11.3342 18.9369 11.2517 18.9207C11.1126 18.8932 10.9705 18.8749 10.8285 18.8561C10.7589 18.8469 10.691 18.8332 10.621 18.8261C10.4073 18.8049 10.1907 18.7932 9.9711 18.7932C9.76322 18.7932 9.55866 18.8053 9.35578 18.8244C9.29204 18.8303 9.22955 18.8403 9.16623 18.8478C9.02666 18.8649 8.88835 18.8853 8.75171 18.9111C8.6813 18.9244 8.61131 18.939 8.54174 18.9544C8.42884 18.9798 8.31719 19.0078 8.20679 19.0386C8.20679 19.0377 8.20679 19.0365 8.20637 19.0357C8.18179 19.0427 8.15805 19.0519 8.13347 19.0594C8.07556 19.0765 8.01765 19.0927 7.96058 19.1111C7.89017 19.1336 7.8206 19.1586 7.75144 19.1836C7.70312 19.2011 7.65563 19.2202 7.60772 19.2386C7.57647 19.2506 7.54522 19.2619 7.5144 19.2744C7.4794 19.2885 7.44316 19.3002 7.40858 19.3148C7.36025 19.3356 7.31359 19.3594 7.26568 19.381C7.21777 19.4027 7.1707 19.426 7.12321 19.4494C7.04364 19.4877 6.96323 19.5252 6.88574 19.5668C6.85075 19.5856 6.817 19.606 6.78284 19.6252C6.74118 19.6485 6.70036 19.6735 6.65953 19.6976C6.56704 19.7522 6.47581 19.8072 6.38624 19.866C6.32833 19.9039 6.27167 19.9439 6.21501 19.9834C6.16335 20.0197 6.10961 20.053 6.0592 20.0905C6.05962 20.093 6.06004 20.0955 6.06045 20.098C5.99213 20.1492 5.92214 20.1984 5.8559 20.2521C5.78966 20.3059 5.72675 20.3638 5.6626 20.4205C5.58094 20.4921 5.49971 20.5638 5.4218 20.6392C5.35889 20.7004 5.29807 20.7633 5.23766 20.8271C5.16309 20.9054 5.0906 20.985 5.01978 21.0666C4.96396 21.1312 4.90896 21.1962 4.85564 21.2628C4.78357 21.3536 4.71483 21.447 4.64734 21.5411C4.60276 21.6036 4.55652 21.6653 4.51402 21.7294C4.42695 21.8611 4.3453 21.9969 4.26781 22.1348C4.25032 22.1656 4.23073 22.1948 4.21365 22.2256C4.12242 22.3943 4.03993 22.568 3.96328 22.7451C3.93703 22.8059 3.91495 22.868 3.89079 22.9297C3.84205 23.0525 3.79539 23.1763 3.75414 23.3025C3.73081 23.3733 3.7104 23.4454 3.68957 23.5175C3.65416 23.6404 3.62208 23.7641 3.59375 23.8899C3.57709 23.9632 3.56084 24.0361 3.54709 24.1103C3.52126 24.2457 3.50168 24.3828 3.4846 24.5207C3.47668 24.5856 3.46627 24.6502 3.46002 24.7156C3.44086 24.9198 3.42878 25.126 3.42878 25.3351C3.42878 25.528 3.44086 25.7176 3.45752 25.9059C3.46335 25.9729 3.47002 26.0392 3.47793 26.1058C3.4821 26.1412 3.48418 26.1771 3.48877 26.2125C3.49043 26.2121 3.4921 26.2112 3.49377 26.2108C3.54084 26.5624 3.61125 26.9074 3.71206 27.239C3.52751 27.4998 3.41669 27.816 3.41669 28.1597C3.41669 29.0416 4.13158 29.7565 5.01353 29.7565C5.05894 29.7565 5.10185 29.7469 5.14643 29.7432C5.226 29.8303 5.30432 29.9182 5.38847 30.0011C5.93381 31.3225 7.03364 32.354 8.39843 32.8106V33.7601V34.5404V35.2153H6.71202H6.43206L6.43748 35.2236C6.35458 35.2273 6.2725 35.2323 6.19043 35.239C6.15461 35.2419 6.11836 35.2436 6.08253 35.2473C6.0542 35.2503 6.02671 35.2536 5.99838 35.2565C5.85299 35.2728 5.70884 35.2923 5.56636 35.3177C5.5347 35.3236 5.50387 35.3307 5.47221 35.3369C5.41722 35.3477 5.36264 35.3598 5.30807 35.3719C5.26808 35.3807 5.22766 35.3877 5.18809 35.3973L5.191 35.4019C5.08769 35.4269 4.98437 35.4519 4.88314 35.4815C4.78982 35.509 4.69816 35.5398 4.60693 35.571C4.54944 35.5906 4.49028 35.606 4.43362 35.6273L4.43737 35.6331C4.21949 35.7144 4.00744 35.8064 3.80122 35.9102V35.9043C3.76872 35.9206 3.73789 35.9393 3.70582 35.956C3.64708 35.9868 3.58875 36.0181 3.53084 36.0505C3.38503 36.1322 3.24172 36.218 3.10299 36.3105C3.09299 36.3172 3.08258 36.323 3.073 36.3293C3.07258 36.3297 3.07216 36.3301 3.07133 36.3301C2.9201 36.4326 2.77471 36.5438 2.63265 36.6584C2.59974 36.685 2.56682 36.7113 2.53433 36.7384C2.39685 36.8538 2.26354 36.9742 2.13606 37.1004C2.11356 37.1225 2.09273 37.1458 2.07065 37.1683C1.9565 37.2849 1.84652 37.4058 1.74112 37.5307C1.71946 37.5566 1.69737 37.5812 1.67613 37.607C1.5624 37.7465 1.45491 37.8907 1.35285 38.0394C1.32952 38.0732 1.30744 38.1069 1.28494 38.1411C1.18454 38.2931 1.0883 38.4485 1.0004 38.6093C0.998317 38.6127 0.996234 38.616 0.994567 38.6197C0.905831 38.7835 0.82626 38.9526 0.751688 39.1242C0.73544 39.1617 0.719192 39.1988 0.703361 39.2363C0.632956 39.4063 0.569215 39.5792 0.512974 39.7562C0.503808 39.7854 0.496309 39.8154 0.487144 39.8446C0.437985 40.0079 0.395492 40.1741 0.359248 40.3424C0.352582 40.3736 0.344667 40.404 0.338418 40.4353C0.30134 40.6199 0.273844 40.8073 0.252597 40.9969C0.248014 41.0385 0.244682 41.0802 0.240932 41.1219C0.223018 41.3177 0.210938 41.5155 0.210938 41.7159V43.4844V44.7009C0.210938 45.4874 0.848339 46.1248 1.63488 46.1248H2.06274H3.07133H3.80122H16.1427H16.8725H17.9603H18.3086C18.8039 46.1248 19.2393 45.8715 19.4942 45.4878C19.9146 45.8945 20.4862 46.1457 21.1169 46.1457H48.4689C49.1001 46.1457 49.6717 45.894 50.092 45.4874C50.347 45.8711 50.7827 46.1244 51.2781 46.1244H51.7059H52.7145H53.4444H65.7858H66.5157H67.6039H67.9522C68.7387 46.1244 69.3761 45.487 69.3761 44.7005L69.3715 43.4873ZM16.4776 24.679C16.4709 24.6111 16.4568 24.5457 16.448 24.4782C16.4289 24.334 16.4105 24.1895 16.3822 24.0482C16.3647 23.9612 16.3401 23.877 16.3193 23.7912C16.2905 23.6729 16.2635 23.5541 16.2285 23.4383C16.2014 23.3488 16.1676 23.2621 16.1368 23.1742C16.0989 23.0663 16.0627 22.9584 16.0193 22.8534C15.9943 22.7926 15.9668 22.7334 15.9398 22.6734C16.2251 22.943 16.608 23.1109 17.0317 23.1109C17.1258 23.1109 17.2167 23.0988 17.3062 23.0834C17.3954 23.3413 17.5004 23.5916 17.6291 23.8283C18.2219 24.9198 19.2155 25.7596 20.4103 26.1596V27.1073V27.886V28.5596H18.7268H18.4473L18.4527 28.5679C18.3473 28.5725 18.2432 28.58 18.139 28.5892C18.0973 28.5929 18.0561 28.5959 18.0149 28.6004C17.8395 28.62 17.6662 28.6467 17.4949 28.6796C17.4379 28.6904 17.3816 28.7029 17.3254 28.7154C17.2854 28.7242 17.245 28.7313 17.2054 28.7408C17.1417 28.7563 17.0804 28.7775 17.0175 28.7946C16.9184 28.8217 16.8188 28.8471 16.7217 28.8787C16.7088 28.8829 16.6955 28.8854 16.683 28.8896V28.8929C16.5372 28.9412 16.3926 28.9925 16.2518 29.0508C16.4226 28.7967 16.5226 28.4905 16.5226 28.1613C16.5226 27.8176 16.4118 27.5014 16.2272 27.2411C16.4105 26.6382 16.5105 25.9996 16.5105 25.3368C16.5105 25.116 16.4988 24.8977 16.4776 24.6827C16.4776 24.6827 16.478 24.6827 16.478 24.6823C16.478 24.6819 16.4776 24.6802 16.4776 24.679ZM26.3327 23.8287C26.4611 23.592 26.5665 23.3417 26.6556 23.0838C26.7452 23.0992 26.836 23.1113 26.9302 23.1113C27.3376 23.1113 27.705 22.9538 27.9867 22.7026C28.0683 22.6297 28.1429 22.5497 28.2083 22.4614C28.2083 22.461 28.2087 22.461 28.2087 22.461C28.2695 22.3789 28.322 22.291 28.3662 22.1981C28.3704 22.1893 28.3758 22.1814 28.3799 22.1727C28.4183 22.0885 28.447 21.9998 28.4699 21.9086C28.4749 21.8902 28.4828 21.8731 28.4866 21.8544C28.4937 21.8223 28.4949 21.7886 28.4999 21.7557C29.4602 22.9251 30.7421 23.817 32.2081 24.3074V25.8646V26.8611L28.9819 28.2513L28.9861 28.263C28.8203 28.2701 28.6557 28.2813 28.4916 28.2959C28.4749 28.2976 28.4587 28.298 28.442 28.2997C27.7588 28.363 27.0947 28.4921 26.4552 28.6783C26.2878 28.6463 26.1182 28.6204 25.9461 28.6013C25.9049 28.5967 25.8632 28.5938 25.822 28.59C25.7183 28.5804 25.6137 28.5729 25.5083 28.5688L25.5137 28.5604H25.2342H23.5507V26.1604C24.7463 25.7601 25.7399 24.9202 26.3327 23.8287ZM55.0275 30.0036C55.0454 30.0473 55.0658 30.0894 55.085 30.1323C55.0642 30.1144 55.0425 30.0981 55.0217 30.0806C54.9892 30.0536 54.9563 30.0269 54.9233 30.0002C54.8175 29.9148 54.7088 29.8323 54.5976 29.7536C54.6163 29.7544 54.6338 29.759 54.653 29.759C54.6984 29.759 54.7413 29.7494 54.7859 29.7457C54.8654 29.8328 54.9433 29.9207 55.0275 30.0036ZM46.0272 26.16V27.1078V27.8864V28.56H44.3441H44.0646L44.07 28.5684C43.9646 28.573 43.8605 28.5804 43.7563 28.5896C43.7147 28.5934 43.6734 28.5963 43.6322 28.6009C43.4601 28.62 43.2906 28.6459 43.1231 28.6779C42.4836 28.4917 41.8195 28.3626 41.1367 28.2992C41.1201 28.2976 41.103 28.2967 41.0859 28.2955C40.9226 28.2809 40.758 28.2697 40.5926 28.2626L40.5968 28.2509L37.3711 26.8607V24.3069C38.8371 23.8162 40.1194 22.9242 41.0792 21.7548C41.0842 21.7877 41.0855 21.8215 41.0926 21.854C41.0967 21.8723 41.1046 21.8894 41.1092 21.9073C41.1326 21.999 41.1613 22.0877 41.1996 22.1723C41.2038 22.181 41.2088 22.1885 41.213 22.1968C41.305 22.3906 41.4346 22.561 41.5925 22.7022C41.8741 22.9534 42.242 23.1109 42.6494 23.1109C42.7436 23.1109 42.8344 23.0988 42.9239 23.0834C43.0131 23.3413 43.1181 23.5916 43.2468 23.8283C43.8388 24.9202 44.832 25.76 46.0272 26.16ZM42.1674 20.0051C42.1799 19.9776 42.1945 19.9509 42.207 19.923H42.6482C42.4794 19.923 42.3199 19.9564 42.1674 20.0051ZM27.4109 20.0047C27.2584 19.9564 27.0993 19.923 26.9306 19.923H27.3718C27.3838 19.9509 27.398 19.9776 27.4109 20.0047ZM14.7929 29.7457C14.8374 29.7494 14.8803 29.759 14.9258 29.759C14.9449 29.759 14.9624 29.754 14.9812 29.7536C14.8699 29.8323 14.7616 29.9148 14.6558 29.9998C14.6558 30.0002 14.6554 30.0002 14.655 30.0002C14.6225 30.0265 14.5896 30.0527 14.5575 30.0798C14.5366 30.0973 14.5142 30.1135 14.4937 30.1315C14.5129 30.0886 14.5329 30.0465 14.5508 30.0027C14.635 29.9211 14.7133 29.8328 14.7929 29.7457ZM58.0375 34.5429V35.2178H57.3409V35.0499C57.3409 35.049 57.3409 35.0482 57.3409 35.0474C57.3409 34.8482 57.3288 34.652 57.3109 34.4579C57.3072 34.4158 57.3034 34.3737 57.2988 34.3316C57.278 34.1429 57.2501 33.9559 57.2134 33.7726C57.2072 33.7405 57.1988 33.7092 57.1922 33.6776C57.1563 33.5105 57.1138 33.346 57.0651 33.1839C57.0559 33.1535 57.048 33.1227 57.0384 33.0927C56.983 32.9169 56.9189 32.7448 56.8493 32.5757C56.8335 32.5373 56.8168 32.4998 56.8006 32.4619C56.7397 32.3228 56.6752 32.1857 56.6052 32.0516C56.6822 32.1107 56.7581 32.1716 56.8389 32.2261C57.2059 32.474 57.6096 32.6706 58.0379 32.8135V33.763L58.0375 34.5429ZM53.6027 22.7472C53.5765 22.808 53.5544 22.8701 53.5302 22.9317C53.4815 23.0546 53.4348 23.1784 53.3936 23.3046C53.3703 23.3754 53.3498 23.4475 53.3286 23.5196C53.2932 23.6425 53.2611 23.7662 53.2328 23.892C53.2161 23.9653 53.1999 24.0382 53.1861 24.1124C53.1603 24.2478 53.1407 24.3848 53.1236 24.5227C53.1153 24.5877 53.1049 24.6523 53.099 24.7177C53.0799 24.9218 53.0678 25.1281 53.0678 25.3372C53.0678 25.5301 53.0799 25.7196 53.0965 25.9079C53.1024 25.975 53.109 26.0413 53.117 26.1079C53.1211 26.1433 53.1232 26.1791 53.1278 26.2146C53.1295 26.2141 53.1311 26.2133 53.1328 26.2129C53.1799 26.5645 53.2503 26.9095 53.3507 27.2411C53.1661 27.5019 53.0553 27.8181 53.0553 28.1618C53.0553 28.4913 53.1553 28.7971 53.3261 29.0512C53.1853 28.9929 53.0407 28.9416 52.8949 28.8933V28.89C52.882 28.8858 52.8687 28.8829 52.8562 28.8791C52.7591 28.8475 52.6595 28.8221 52.5608 28.795C52.4975 28.7779 52.4358 28.7567 52.3721 28.7413C52.3325 28.7317 52.2917 28.7246 52.2521 28.7158C52.1959 28.7033 52.1396 28.6913 52.083 28.6804C51.9117 28.6475 51.7388 28.6204 51.563 28.6013C51.5218 28.5967 51.4801 28.5938 51.4389 28.59C51.3347 28.5804 51.2306 28.5729 51.1252 28.5688L51.1306 28.5604H50.8511H49.1676V26.1604C50.3624 25.7605 51.356 24.9206 51.9488 23.8291C52.0775 23.5925 52.1825 23.3421 52.2717 23.0842C52.3612 23.0996 52.4521 23.1117 52.5462 23.1117C52.967 23.1117 53.3469 22.9455 53.6315 22.6793C53.6219 22.7018 53.6127 22.7247 53.6027 22.7472ZM11.5413 32.8131C11.6617 32.7727 11.7817 32.7319 11.8979 32.6827C12.1945 32.5573 12.4761 32.404 12.7398 32.2257C12.8207 32.1711 12.8961 32.1099 12.9736 32.0512C12.9036 32.1853 12.8386 32.3228 12.7778 32.4624C12.7615 32.4994 12.7453 32.5365 12.7298 32.574C12.7298 32.574 12.7298 32.574 12.7298 32.5744C12.6599 32.744 12.5957 32.9169 12.5403 33.0931C12.5311 33.1222 12.5232 33.1522 12.5145 33.1818C12.4657 33.3447 12.4232 33.5101 12.387 33.678C12.387 33.6784 12.387 33.6784 12.3866 33.6788C12.3799 33.7097 12.372 33.7405 12.3657 33.7713C12.3291 33.9555 12.3012 34.1429 12.2803 34.3325C12.2757 34.3737 12.2724 34.415 12.2687 34.4566C12.2508 34.6524 12.2387 34.8499 12.2387 35.0499V35.2178H11.5421V32.8131H11.5413Z" fill="#012B1E"/>
<g id="Group">
<g id="Group_2">
<g id="Group_3">
<path id="Vector_2" d="M55.9196 38.1472H39.2759C38.4911 38.1472 37.8545 37.5106 37.8545 36.7257V33.7462C37.8545 30.1622 40.7599 27.2563 44.3443 27.2563H50.8517C54.4357 27.2563 57.3415 30.1617 57.3415 33.7462V36.7257C57.3411 37.5106 56.7045 38.1472 55.9196 38.1472Z" fill="#006F62"/>
<path id="Vector_3" d="M55.9196 38.1472H39.2759C38.4911 38.1472 37.8545 37.5106 37.8545 36.7257V33.7462C37.8545 30.1622 40.7599 27.2563 44.3439 27.2563H50.8512C54.4353 27.2563 57.3411 30.1617 57.3411 33.7462V36.7257C57.3411 37.5106 56.7045 38.1472 55.9196 38.1472Z" fill="#E7AD27"/>
<path id="Vector_4" d="M48.792 33.0163C49.9698 31.1807 51.6891 28.5016 52.3715 27.4376C51.8832 27.3201 51.3741 27.2563 50.8501 27.2563H44.3427C43.8186 27.2563 43.3095 27.3201 42.8213 27.4376L46.4003 33.015C46.9594 33.887 48.233 33.8882 48.792 33.0163Z" fill="#00A793"/>
<path id="Vector_5" d="M44.0635 27.2563L46.5981 31.207L47.5967 29.7039L46.0265 27.2563H44.0635Z" fill="#09C7B0"/>
<path id="Vector_6" d="M51.1303 27.2563L48.5953 31.207L47.5967 29.7039L49.1673 27.2563H51.1303Z" fill="#09C7B0"/>
<path id="Vector_7" d="M47.5975 31.7898C47.7938 31.7898 47.9529 31.6307 47.9529 31.4345C47.9529 31.2382 47.7938 31.0791 47.5975 31.0791C47.4013 31.0791 47.2422 31.2382 47.2422 31.4345C47.2422 31.6307 47.4013 31.7898 47.5975 31.7898Z" fill="#006F62"/>
<path id="Vector_8" d="M49.1681 24.3271H46.0273V26.5826V27.2563L47.5975 29.7038L49.1681 27.2563V27.1013V24.3271Z" fill="#E6E7E8"/>
<g id="Group_4">
<g id="Group_5">
<path id="Vector_9" d="M52.0352 27.3662C52.1414 27.3858 52.2472 27.4079 52.3518 27.4329C52.2472 27.4083 52.1414 27.3862 52.0352 27.3662Z" fill="#E7AD27"/>
<path id="Vector_10" d="M52.3722 27.438C51.9739 28.0591 51.2224 29.2302 50.4316 30.4625V38.1472H52.8954V27.5871C52.7242 27.5301 52.5496 27.4805 52.3722 27.438Z" fill="#FEDE3A"/>
<path id="Vector_11" d="M51.2832 27.2722C51.3974 27.2797 51.5115 27.2893 51.624 27.303C51.5115 27.2893 51.3978 27.2797 51.2832 27.2722Z" fill="#E7AD27"/>
</g>
<g id="Group_6">
<path id="Vector_12" d="M43.5693 27.303C43.6818 27.2893 43.7955 27.2801 43.9101 27.2722C43.796 27.2797 43.6822 27.2893 43.5693 27.303Z" fill="#E7AD27"/>
<path id="Vector_13" d="M43.2158 27.3564C43.3325 27.336 43.45 27.3176 43.5683 27.3035C43.45 27.3172 43.3325 27.3356 43.2158 27.3564Z" fill="#E7AD27"/>
<path id="Vector_14" d="M42.8211 27.438C42.644 27.4809 42.4695 27.5301 42.2979 27.5871V38.1472H44.7616V30.4621L42.8211 27.438Z" fill="#FEDE3A"/>
</g>
</g>
<path id="Vector_15" d="M40.7089 38.147V28.3689C38.9863 29.5358 37.8535 31.5084 37.8535 33.746V36.7255C37.8535 37.5104 38.4901 38.147 39.275 38.147H40.7089Z" fill="#00A793"/>
<path id="Vector_16" d="M54.4854 28.3689V38.147H55.9189C56.7038 38.147 57.3403 37.5104 57.3403 36.7255V33.746C57.3407 31.5084 56.2084 29.5358 54.4854 28.3689Z" fill="#00A793"/>
</g>
<g id="Group_7">
<path id="Vector_17" d="M47.5977 25.115C44.8643 25.115 42.6484 22.899 42.6484 20.1661V17.5965C42.6484 14.8632 44.8643 12.6477 47.5973 12.6477C50.3306 12.6477 52.5461 14.8636 52.5461 17.5965V20.1661C52.5469 22.899 50.331 25.115 47.5977 25.115Z" fill="white"/>
<path id="Vector_18" d="M47.5979 25.1149C47.0489 25.1149 46.521 25.0253 46.0273 24.8604V25.804C46.5214 25.9693 47.048 26.0627 47.5975 26.0627C48.147 26.0627 48.674 25.9693 49.1677 25.804V24.8604C48.6749 25.0253 48.147 25.1149 47.5979 25.1149Z" fill="#D1D3D4"/>
<path id="Vector_19" d="M42.649 20.1661V18.6196C41.7687 18.6196 41.0547 19.3333 41.0547 20.214C41.0547 21.0942 41.7683 21.8079 42.649 21.8079C42.7415 21.8079 42.8319 21.8 42.9202 21.785C42.7444 21.2776 42.649 20.7326 42.649 20.1661Z" fill="white"/>
<path id="Vector_20" d="M52.5466 18.6191V20.1656C52.5466 20.7326 52.4512 21.2771 52.2754 21.7841C52.3633 21.7991 52.4541 21.807 52.5466 21.807C53.4269 21.807 54.1409 21.0933 54.1409 20.2131C54.1405 19.3328 53.4269 18.6191 52.5466 18.6191Z" fill="white"/>
<path id="Vector_21" d="M47.5977 24.4043C44.8643 24.4043 42.6484 22.1884 42.6484 19.4551V20.1658C42.6484 22.8991 44.8643 25.115 47.5973 25.115C50.3306 25.115 52.5461 22.8991 52.5461 20.1658V19.4551C52.5469 22.1884 50.331 24.4043 47.5977 24.4043Z" fill="#E6E7E8"/>
<g id="Group_8">
<path id="Vector_22" d="M45.8718 19.5175C45.8718 19.8487 45.6035 20.117 45.2723 20.117C44.9411 20.117 44.6729 19.8487 44.6729 19.5175C44.6729 19.1863 44.9411 18.918 45.2723 18.918C45.6031 18.918 45.8718 19.1863 45.8718 19.5175Z" fill="#006F62"/>
<path id="Vector_23" d="M50.5232 19.5175C50.5232 19.8487 50.2549 20.117 49.9237 20.117C49.5925 20.117 49.3242 19.8487 49.3242 19.5175C49.3242 19.1863 49.5925 18.918 49.9237 18.918C50.2549 18.918 50.5232 19.1863 50.5232 19.5175Z" fill="#006F62"/>
</g>
<g id="Group_9">
<path id="Vector_24" d="M42.6485 20.1662V19.2976C42.1428 19.2976 41.7324 19.7075 41.7324 20.2137C41.7324 20.7195 42.1424 21.1298 42.6485 21.1298C42.6806 21.1298 42.711 21.1236 42.7423 21.1202C42.6819 20.8111 42.6485 20.4928 42.6485 20.1662Z" fill="#E6E7E8"/>
<path id="Vector_25" d="M52.5508 20.1662V19.2976C53.0565 19.2976 53.4669 19.7075 53.4669 20.2137C53.4669 20.7195 53.0569 21.1298 52.5508 21.1298C52.5187 21.1298 52.4883 21.1236 52.457 21.1202C52.517 20.8111 52.5508 20.4928 52.5508 20.1662Z" fill="#E6E7E8"/>
</g>
</g>
<g id="Group_10">
<path id="Vector_26" d="M53.6334 16.4364C53.4693 13.2452 50.8297 10.7085 47.5981 10.7085C44.3661 10.7085 41.7269 13.2452 41.5628 16.4364C41.2391 16.4768 40.9883 16.7526 40.9883 17.0875V17.9628C40.9883 18.3252 41.282 18.6194 41.6448 18.6194H53.5518C53.9142 18.6194 54.2083 18.3257 54.2083 17.9628V17.0875C54.2083 16.753 53.9575 16.4768 53.6334 16.4364Z" fill="#F7CB15"/>
<path id="Vector_27" d="M53.5518 17.744H41.6448C41.2824 17.744 40.9883 17.4503 40.9883 17.0874V17.9627C40.9883 18.3251 41.2824 18.6193 41.6448 18.6193H53.5518C53.9142 18.6193 54.2083 18.3255 54.2083 17.9627V17.0874C54.2083 17.4503 53.9142 17.744 53.5518 17.744Z" fill="#E7AD27"/>
<path id="Vector_28" d="M51.1958 17.7441V14.3054C51.1958 12.3191 49.5857 10.7085 47.5989 10.7085C45.6121 10.7085 44.002 12.3191 44.002 14.3054V17.7441H51.1958Z" fill="#FEDE3A"/>
<path id="Vector_29" d="M48.2872 15.8905H46.9086C46.6803 15.8905 46.49 15.7147 46.4725 15.4869L46.1029 10.7426C46.0829 10.4885 46.2842 10.271 46.5391 10.271H48.6567C48.9117 10.271 49.1129 10.4885 49.0929 10.7426L48.7234 15.4869C48.7059 15.7147 48.5159 15.8905 48.2872 15.8905Z" fill="#FFF335"/>
</g>
</g>
<g id="Group_11">
<g id="Group_12">
<path id="Vector_30" d="M30.3024 38.1472H13.6588C12.8735 38.1472 12.2373 37.5106 12.2373 36.7257V33.7462C12.2373 30.1622 15.1427 27.2563 18.7271 27.2563H25.2345C28.8185 27.2563 31.7243 30.1617 31.7243 33.7462V36.7257C31.7239 37.5106 31.0877 38.1472 30.3024 38.1472Z" fill="#006F62"/>
<path id="Vector_31" d="M30.3024 38.1472H13.6588C12.8739 38.1472 12.2373 37.5106 12.2373 36.7257V33.7462C12.2373 30.1622 15.1427 27.2563 18.7267 27.2563H25.2341C28.8181 27.2563 31.7239 30.1617 31.7239 33.7462V36.7257C31.7243 37.5106 31.0877 38.1472 30.3024 38.1472Z" fill="#E7AD27"/>
<path id="Vector_32" d="M23.1758 33.0163C24.3536 31.1807 26.0725 28.5016 26.7553 27.4376C26.267 27.3201 25.7579 27.2563 25.2338 27.2563H18.7265C18.2024 27.2563 17.6933 27.3201 17.2051 27.4376L20.7841 33.015C21.3432 33.887 22.6163 33.8882 23.1758 33.0163Z" fill="#00A793"/>
<path id="Vector_33" d="M18.4473 27.2563L20.9823 31.207L21.9809 29.7039L20.4103 27.2563H18.4473Z" fill="#09C7B0"/>
<path id="Vector_34" d="M25.5137 27.2563L22.9787 31.207L21.9805 29.7039L23.5506 27.2563H25.5137Z" fill="#09C7B0"/>
<path id="Vector_35" d="M21.9804 31.7898C22.1766 31.7898 22.3357 31.6307 22.3357 31.4345C22.3357 31.2382 22.1766 31.0791 21.9804 31.0791C21.7841 31.0791 21.625 31.2382 21.625 31.4345C21.625 31.6307 21.7841 31.7898 21.9804 31.7898Z" fill="#006F62"/>
<path id="Vector_36" d="M23.5509 24.3271H20.4102V26.5826V27.2563L21.9807 29.7038L23.5509 27.2563V27.1013V24.3271Z" fill="#E6E7E8"/>
<g id="Group_13">
<g id="Group_14">
<path id="Vector_37" d="M26.4189 27.3662C26.5252 27.3858 26.631 27.4079 26.7356 27.4329C26.631 27.4083 26.5256 27.3862 26.4189 27.3662Z" fill="#E7AD27"/>
<path id="Vector_38" d="M26.7569 27.438C26.3587 28.0591 25.6071 29.2302 24.8164 30.4625V38.1472H27.2802V27.5871C27.1086 27.5301 26.934 27.4805 26.7569 27.438Z" fill="#FEDE3A"/>
</g>
<g id="Group_15">
<path id="Vector_39" d="M17.9551 27.303C18.0676 27.2893 18.1813 27.2801 18.2959 27.2722C18.1813 27.2797 18.0676 27.2893 17.9551 27.303Z" fill="#E7AD27"/>
<path id="Vector_40" d="M17.2275 27.4329C17.3321 27.4079 17.4375 27.3862 17.5442 27.3662C17.4379 27.3862 17.3321 27.4083 17.2275 27.4329Z" fill="#E7AD27"/>
<path id="Vector_41" d="M17.6006 27.3564C17.7172 27.336 17.8347 27.3176 17.953 27.3035C17.8343 27.3172 17.7172 27.3356 17.6006 27.3564Z" fill="#E7AD27"/>
<path id="Vector_42" d="M17.2068 27.438C17.0298 27.4809 16.8548 27.5301 16.6836 27.5871V38.1472H19.1474V30.4621L17.2068 27.438Z" fill="#FEDE3A"/>
</g>
</g>
<path id="Vector_43" d="M15.0927 38.1472V28.3691C13.37 29.536 12.2373 31.5087 12.2373 33.7462V36.7258C12.2373 37.5106 12.8739 38.1472 13.6588 38.1472H15.0927Z" fill="#00A793"/>
<path id="Vector_44" d="M28.8682 28.3691V38.1472H30.3021C31.087 38.1472 31.7236 37.5106 31.7236 36.7258V33.7462C31.7231 31.5087 30.5908 29.536 28.8682 28.3691Z" fill="#00A793"/>
</g>
<g id="Group_16">
<path id="Vector_45" d="M21.9805 25.115C19.2472 25.115 17.0312 22.899 17.0312 20.1661V17.5965C17.0312 14.8632 19.2472 12.6477 21.9801 12.6477C24.7134 12.6477 26.9289 14.8636 26.9289 17.5965V20.1661C26.9293 22.899 24.7134 25.115 21.9805 25.115Z" fill="white"/>
<path id="Vector_46" d="M21.9798 25.1149C21.4307 25.1149 20.9029 25.0253 20.4092 24.8604V25.804C20.9033 25.9693 21.4299 26.0627 21.9794 26.0627C22.5289 26.0627 23.0559 25.9693 23.5495 25.804V24.8604C23.0567 25.0253 22.5284 25.1149 21.9798 25.1149Z" fill="#D1D3D4"/>
<path id="Vector_47" d="M17.0309 20.1661V18.6196C16.1506 18.6196 15.4365 19.3333 15.4365 20.214C15.4365 21.0942 16.1502 21.8079 17.0309 21.8079C17.1233 21.8079 17.2137 21.8 17.3021 21.785C17.1267 21.2776 17.0309 20.7326 17.0309 20.1661Z" fill="white"/>
<path id="Vector_48" d="M26.9284 18.6194V20.1658C26.9284 20.7328 26.833 21.2773 26.6572 21.7843C26.7455 21.7993 26.8359 21.8072 26.9284 21.8072C27.8087 21.8072 28.5228 21.0936 28.5228 20.2133C28.5228 19.333 27.8087 18.6194 26.9284 18.6194Z" fill="white"/>
<path id="Vector_49" d="M21.9805 24.4043C19.2472 24.4043 17.0312 22.1884 17.0312 19.4551V20.1658C17.0312 22.8991 19.2472 25.115 21.9801 25.115C24.7134 25.115 26.9289 22.8991 26.9289 20.1658V19.4551C26.9293 22.1884 24.7134 24.4043 21.9805 24.4043Z" fill="#E6E7E8"/>
<g id="Group_17">
<path id="Vector_50" d="M20.2537 19.5175C20.2537 19.8487 19.9854 20.117 19.6542 20.117C19.323 20.117 19.0547 19.8487 19.0547 19.5175C19.0547 19.1863 19.323 18.918 19.6542 18.918C19.9854 18.918 20.2537 19.1863 20.2537 19.5175Z" fill="#006F62"/>
<path id="Vector_51" d="M24.905 19.5175C24.905 19.8487 24.6367 20.117 24.3055 20.117C23.9743 20.117 23.7061 19.8487 23.7061 19.5175C23.7061 19.1863 23.9743 18.918 24.3055 18.918C24.6363 18.918 24.905 19.1863 24.905 19.5175Z" fill="#006F62"/>
</g>
<g id="Group_18">
<path id="Vector_52" d="M17.0304 20.1662V19.2976C16.5246 19.2976 16.1143 19.7075 16.1143 20.2137C16.1143 20.7195 16.5242 21.1298 17.0304 21.1298C17.0624 21.1298 17.0929 21.1236 17.1245 21.1202C17.0641 20.8111 17.0304 20.4928 17.0304 20.1662Z" fill="#E6E7E8"/>
<path id="Vector_53" d="M26.9326 20.1662V19.2976C27.4384 19.2976 27.8487 19.7075 27.8487 20.2137C27.8487 20.7195 27.4388 21.1298 26.9326 21.1298C26.9005 21.1298 26.8701 21.1236 26.8389 21.1202C26.8993 20.8111 26.9326 20.4928 26.9326 20.1662Z" fill="#E6E7E8"/>
</g>
</g>
<g id="Group_19">
<path id="Vector_54" d="M28.0162 16.4364C27.8521 13.2452 25.2129 10.7085 21.9809 10.7085C18.7489 10.7085 16.1097 13.2452 15.9456 16.4364C15.6215 16.4768 15.3711 16.7526 15.3711 17.0875V17.9628C15.3711 18.3252 15.6648 18.6194 16.0277 18.6194H27.9346C28.297 18.6194 28.5911 18.3257 28.5911 17.9628V17.0875C28.5907 16.753 28.3399 16.4768 28.0162 16.4364Z" fill="#F7CB15"/>
<path id="Vector_55" d="M27.9336 17.744H16.0267C15.6642 17.744 15.3701 17.4503 15.3701 17.0874V17.9627C15.3701 18.3251 15.6642 18.6193 16.0267 18.6193H27.9336C28.296 18.6193 28.5902 18.3255 28.5902 17.9627V17.0874C28.5902 17.4503 28.2965 17.744 27.9336 17.744Z" fill="#E7AD27"/>
<path id="Vector_56" d="M25.5767 17.7441V14.3054C25.5767 12.3191 23.9665 10.7085 21.9798 10.7085C19.9934 10.7085 18.3828 12.3191 18.3828 14.3054V17.7441H25.5767Z" fill="#FEDE3A"/>
<path id="Vector_57" d="M22.67 15.8905H21.2915C21.0627 15.8905 20.8728 15.7147 20.8553 15.4869L20.4857 10.7426C20.4657 10.4885 20.667 10.271 20.9219 10.271H23.0391C23.2941 10.271 23.4953 10.4885 23.4753 10.7426L23.1058 15.4869C23.0887 15.7147 22.8987 15.8905 22.67 15.8905Z" fill="#FFF335"/>
</g>
</g>
<g id="Group_20">
<path id="Vector_58" d="M54.6516 30.1218C54.697 30.1218 54.7399 30.1122 54.7845 30.1085C54.864 30.1955 54.9424 30.2838 55.0265 30.3663C55.4006 31.2733 56.0347 32.0461 56.8379 32.5885C56.975 32.6814 57.122 32.7593 57.2691 32.8376C57.252 32.7139 57.237 32.5897 57.2128 32.4685C57.2066 32.4364 57.1983 32.4052 57.1916 32.3735C57.1558 32.2065 57.1133 32.0423 57.065 31.8803C57.0558 31.8494 57.0479 31.8186 57.0383 31.7882C56.9829 31.6128 56.9191 31.4412 56.8496 31.272C56.8337 31.2337 56.8171 31.1954 56.8004 31.1575C56.7258 30.9867 56.6471 30.8183 56.5588 30.6559C56.5563 30.6509 56.553 30.6463 56.5505 30.6417C56.4638 30.4826 56.3684 30.3293 56.2692 30.1784C56.2463 30.1434 56.2234 30.1089 56.2001 30.0743C56.0984 29.9268 55.9918 29.7827 55.8785 29.6439C55.8572 29.6177 55.8347 29.5927 55.8126 29.5669C55.7081 29.4427 55.5989 29.3227 55.4856 29.2069C55.4627 29.1836 55.4415 29.1598 55.4181 29.1369C55.2911 29.0111 55.1586 28.8916 55.0215 28.7766C55.009 28.7662 54.9961 28.7562 54.9836 28.7457C54.9632 28.7291 54.9428 28.7124 54.9224 28.6958C54.7807 28.5816 54.6366 28.4712 54.4854 28.3691V30.1047C54.5399 30.111 54.5941 30.1218 54.6516 30.1218Z" fill="#026244"/>
<path id="Vector_59" d="M14.5557 28.7765C14.4187 28.8919 14.2854 29.0119 14.1583 29.1377C14.1396 29.156 14.1225 29.1756 14.1041 29.1939C14.1008 29.1977 14.0971 29.201 14.0937 29.2048C13.9792 29.3214 13.8696 29.4422 13.7642 29.5676C13.7429 29.593 13.7204 29.6176 13.6992 29.6435C13.5855 29.7826 13.4784 29.9267 13.3763 30.0755C13.3534 30.1088 13.3313 30.143 13.3088 30.1767C13.2089 30.3279 13.113 30.4829 13.0256 30.6425C13.0235 30.6466 13.0206 30.6508 13.0185 30.655C12.9297 30.8183 12.8506 30.987 12.776 31.1582C12.7598 31.1953 12.7435 31.2328 12.7277 31.2703C12.6577 31.4398 12.5935 31.6123 12.5377 31.789C12.5285 31.8181 12.5206 31.8481 12.5119 31.8777C12.4631 32.0406 12.4206 32.206 12.3844 32.3739C12.3777 32.4051 12.3698 32.4359 12.3636 32.4676C12.3386 32.5926 12.3227 32.7205 12.3057 32.848C12.4544 32.7684 12.5994 32.6822 12.7385 32.588C13.2659 32.2318 13.7213 31.7765 14.0779 31.2486C14.2641 30.9732 14.4216 30.677 14.5499 30.3658C14.6341 30.2834 14.7124 30.195 14.7919 30.108C14.8365 30.1117 14.8794 30.1213 14.9248 30.1213C14.9819 30.1213 15.0365 30.1105 15.0919 30.1046V28.3691V28.3687C14.9411 28.4711 14.7961 28.5815 14.6545 28.6957C14.6216 28.7228 14.5882 28.7494 14.5557 28.7765Z" fill="#026244"/>
</g>
<g id="Group_21">
<g id="Group_22">
<g id="Group_23">
<path id="Vector_60" d="M18.3027 44.824H1.62903C0.84248 44.824 0.205078 44.1866 0.205078 43.4001V40.4151C0.205078 36.8244 3.11588 33.9141 6.70658 33.9141H13.2256C16.8163 33.9141 19.7271 36.8249 19.7271 40.4151V43.4001C19.7267 44.1866 19.0893 44.824 18.3027 44.824Z" fill="#006F62"/>
<path id="Vector_61" d="M18.3027 44.824H1.62903C0.84248 44.824 0.205078 44.1866 0.205078 43.4001V40.4151C0.205078 36.8244 3.11588 33.9141 6.70616 33.9141H13.2252C16.8159 33.9141 19.7262 36.8249 19.7262 40.4151V43.4001C19.7267 44.1866 19.0893 44.824 18.3027 44.824Z" fill="#026244"/>
<path id="Vector_62" d="M8.16202 40.1464C9.0048 41.4603 10.9249 41.4603 11.7681 40.1464C13.06 38.1329 14.706 35.5679 15.5034 34.3252C14.7943 34.0598 14.0265 33.9136 13.2246 33.9136H6.70557C5.90361 33.9136 5.13623 34.0598 4.42676 34.3252L8.16202 40.1464Z" fill="#006F62"/>
<path id="Vector_63" d="M11.1636 39.6839C12.3435 37.8451 14.0657 35.1613 14.7498 34.0952C14.2607 33.9777 13.7507 33.9136 13.2254 33.9136H6.70599C6.18065 33.9136 5.67073 33.9773 5.18164 34.0952L8.76692 39.6827C9.32767 40.5563 10.6029 40.5571 11.1636 39.6839Z" fill="#00A793"/>
<path id="Vector_64" d="M6.42578 33.9141L8.96497 37.8714L9.96524 36.3658L8.39214 33.9141H6.42578Z" fill="#09C7B0"/>
<path id="Vector_65" d="M13.5047 33.9141L10.9651 37.8714L9.96484 36.3658L11.5379 33.9141H13.5047Z" fill="#09C7B0"/>
<path id="Vector_66" d="M10.3223 38.0996C10.3223 38.2962 10.1628 38.4558 9.96654 38.4558C9.76991 38.4558 9.61035 38.2962 9.61035 38.0996C9.61035 37.903 9.76991 37.7434 9.96654 37.7434C10.1628 37.7434 10.3223 37.903 10.3223 38.0996Z" fill="#006F62"/>
<path id="Vector_67" d="M11.5392 30.9795H8.39258V33.2391V33.914L9.96567 36.3657L11.5388 33.914V33.6695H11.5392V30.9795Z" fill="#E6E7E8"/>
<path id="Vector_68" d="M3.06543 44.8241H3.79532V34.6023C3.54244 34.7294 3.29831 34.8706 3.06543 35.0285V44.8241Z" fill="#006F62"/>
<path id="Vector_69" d="M16.1367 44.8241H16.8666V35.0285C16.6337 34.871 16.3896 34.7294 16.1367 34.6023V44.8241Z" fill="#006F62"/>
<path id="Vector_70" d="M3.06547 44.8241V35.0286C1.33949 36.1976 0.205078 38.1739 0.205078 40.4152V43.4002C0.205078 44.1867 0.84248 44.8241 1.62903 44.8241H3.06547Z" fill="#00A793"/>
<path id="Vector_71" d="M16.8662 35.0286V44.8241H18.3027C19.0892 44.8241 19.7266 44.1867 19.7266 43.4002V40.4152C19.7266 38.1739 18.5922 36.1976 16.8662 35.0286Z" fill="#00A793"/>
</g>
<g id="Group_24">
<path id="Vector_72" d="M14.5919 28.6606C17.1472 26.1054 17.1472 21.9625 14.5919 19.4073C12.0367 16.852 7.89382 16.852 5.33858 19.4073C2.78334 21.9625 2.78334 26.1054 5.33858 28.6606C7.89382 31.2158 12.0367 31.2158 14.5919 28.6606Z" fill="#00A793"/>
<path id="Vector_73" d="M9.9658 31.7685C7.22747 31.7685 5.00781 29.5488 5.00781 26.8105V24.2363C5.00781 21.498 7.22747 19.2783 9.9658 19.2783C12.7041 19.2783 14.9238 21.498 14.9238 24.2363V26.8105C14.9238 29.5488 12.7041 31.7685 9.9658 31.7685Z" fill="white"/>
<path id="Vector_74" d="M9.96567 31.7686C9.41575 31.7686 8.88667 31.6791 8.39258 31.5137V32.4589C8.8875 32.6247 9.41534 32.7181 9.96567 32.7181C10.5164 32.7181 11.0443 32.6247 11.5388 32.4589V31.5137C11.0447 31.6791 10.5156 31.7686 9.96567 31.7686Z" fill="#D1D3D4"/>
<path id="Vector_75" d="M5.00797 26.8106V25.2612C4.12602 25.2612 3.41113 25.9761 3.41113 26.8581C3.41113 27.74 4.12602 28.4549 5.00797 28.4549C5.10046 28.4549 5.19127 28.447 5.27959 28.432C5.10379 27.9242 5.00797 27.3788 5.00797 26.8106Z" fill="white"/>
<path id="Vector_76" d="M14.923 25.2612V26.8106C14.923 27.3784 14.8272 27.9242 14.6514 28.432C14.7397 28.447 14.8305 28.4549 14.923 28.4549C15.8049 28.4549 16.5198 27.74 16.5198 26.8581C16.5202 25.9761 15.8049 25.2612 14.923 25.2612Z" fill="white"/>
<path id="Vector_77" d="M9.9658 31.0566C7.22747 31.0566 5.00781 28.837 5.00781 26.0986V26.8106C5.00781 29.5489 7.22747 31.7686 9.9658 31.7686C12.7041 31.7686 14.9238 29.5489 14.9238 26.8106V26.0986C14.9238 28.837 12.7041 31.0566 9.9658 31.0566Z" fill="#E6E7E8"/>
<path id="Vector_78" d="M5.00781 24.2365V25.213C6.94585 24.0832 8.25106 21.9889 8.26023 19.5859C6.36385 20.2821 5.00781 22.0985 5.00781 24.2365Z" fill="#E6E7E8"/>
<path id="Vector_79" d="M12.5633 25.3895C13.3961 25.3895 14.1906 25.2291 14.923 24.9454V24.2363C14.923 21.498 12.7033 19.2783 9.96498 19.2783C8.53145 19.2783 7.24414 19.8903 6.33887 20.8627C7.18957 23.4893 9.65377 25.3895 12.5633 25.3895Z" fill="#E6E7E8"/>
<path id="Vector_80" d="M6.05371 18.7889C6.38199 22.095 9.17156 24.6775 12.564 24.6775C14.0308 24.6775 15.3848 24.1947 16.4763 23.3794C16.148 20.0732 13.3588 17.4907 9.96603 17.4907C8.49875 17.4907 7.14479 17.9736 6.05371 18.7889Z" fill="#006F62"/>
<path id="Vector_81" d="M3.42285 24.0339C3.42285 24.3318 3.44452 24.6242 3.48326 24.9113C6.2395 24.141 8.26169 21.613 8.26169 18.611C8.26169 18.3131 8.24003 18.0207 8.20128 17.7336C5.44504 18.5039 3.42285 21.0319 3.42285 24.0339Z" fill="#00A793"/>
<g id="Group_25">
<path id="Vector_82" d="M8.45734 26.161C8.45734 26.4927 8.18863 26.7618 7.8566 26.7618C7.52499 26.7618 7.25586 26.4927 7.25586 26.161C7.25586 25.8294 7.52499 25.5603 7.8566 25.5603C8.18863 25.5603 8.45734 25.8294 8.45734 26.161Z" fill="#006F62"/>
<path id="Vector_83" d="M13.1175 26.161C13.1175 26.4927 12.8484 26.7618 12.5168 26.7618C12.1851 26.7618 11.916 26.4927 11.916 26.161C11.916 25.8294 12.1851 25.5603 12.5168 25.5603C12.8488 25.5603 13.1175 25.8294 13.1175 26.161Z" fill="#006F62"/>
</g>
<g id="Group_26">
<path id="Vector_84" d="M5.0086 26.8107V25.9404C4.50159 25.9404 4.09082 26.3512 4.09082 26.8582C4.09082 27.3648 4.50159 27.776 5.0086 27.776C5.04068 27.776 5.0715 27.7697 5.10275 27.7664C5.04234 27.4573 5.0086 27.1382 5.0086 26.8107Z" fill="#E6E7E8"/>
<path id="Vector_85" d="M14.9291 26.8107V25.9404C15.4361 25.9404 15.8469 26.3512 15.8469 26.8582C15.8469 27.3648 15.4361 27.776 14.9291 27.776C14.897 27.776 14.8662 27.7697 14.835 27.7664C14.8958 27.4573 14.9291 27.1382 14.9291 26.8107Z" fill="#E6E7E8"/>
</g>
</g>
</g>
<g id="Group_27">
<g id="Group_28">
<path id="Vector_86" d="M67.9453 44.824H51.2716C50.4851 44.824 49.8477 44.1866 49.8477 43.4001V40.4151C49.8477 36.8244 52.7585 33.9141 56.3487 33.9141H62.8677C66.4584 33.9141 69.3688 36.8249 69.3688 40.4151V43.4001C69.3692 44.1866 68.7318 44.824 67.9453 44.824Z" fill="#006F62"/>
<path id="Vector_87" d="M67.9453 44.824H51.2716C50.4851 44.824 49.8477 44.1866 49.8477 43.4001V40.4151C49.8477 36.8244 52.7585 33.9141 56.3487 33.9141H62.8677C66.4584 33.9141 69.3688 36.8249 69.3688 40.4151V43.4001C69.3692 44.1866 68.7318 44.824 67.9453 44.824Z" fill="#026244"/>
<path id="Vector_88" d="M57.8056 40.1464C58.6488 41.4603 60.5685 41.4603 61.4117 40.1464C62.7036 38.1329 64.3496 35.5679 65.1469 34.3252C64.4379 34.0598 63.6701 33.9136 62.8681 33.9136H56.3491C55.5472 33.9136 54.7798 34.0598 54.0703 34.3252L57.8056 40.1464Z" fill="#006F62"/>
<path id="Vector_89" d="M60.8068 39.6839C61.9866 37.8451 63.7088 35.1613 64.3929 34.0952C63.9038 33.9777 63.3939 33.9136 62.8685 33.9136H56.3495C55.8242 33.9136 55.3143 33.9773 54.8252 34.0952L58.4105 39.6827C58.9708 40.5563 60.2464 40.5571 60.8068 39.6839Z" fill="#00A793"/>
<path id="Vector_90" d="M56.0684 33.9141L58.6076 37.8714L59.6082 36.3658L58.0347 33.9141H56.0684Z" fill="#09C7B0"/>
<path id="Vector_91" d="M63.1479 33.9141L60.6087 37.8714L59.6084 36.3658L61.1815 33.9141H63.1479Z" fill="#09C7B0"/>
<path id="Vector_92" d="M59.9643 38.0996C59.9643 38.2962 59.8048 38.4558 59.6081 38.4558C59.4115 38.4558 59.252 38.2962 59.252 38.0996C59.252 37.903 59.4115 37.7434 59.6081 37.7434C59.8052 37.7434 59.9643 37.903 59.9643 38.0996Z" fill="#006F62"/>
<path id="Vector_93" d="M61.1818 30.9795H58.0352V33.2391V33.914L59.6087 36.3657L61.1818 33.914V33.6695V30.9795Z" fill="#E6E7E8"/>
<path id="Vector_94" d="M52.708 44.8241H53.4379V34.6023C53.185 34.7294 52.9409 34.8706 52.708 35.0285V44.8241Z" fill="#006F62"/>
<path id="Vector_95" d="M65.7793 44.8241H66.5092V35.0285C66.2763 34.871 66.0322 34.7294 65.7793 34.6023V44.8241Z" fill="#006F62"/>
<path id="Vector_96" d="M52.708 44.8241V35.0286C50.9821 36.1976 49.8477 38.1739 49.8477 40.4152V43.4002C49.8477 44.1867 50.4851 44.8241 51.2716 44.8241H52.708Z" fill="#00A793"/>
<path id="Vector_97" d="M66.5088 35.0286V44.8241H67.9452C68.7318 44.8241 69.3692 44.1867 69.3692 43.4002V40.4152C69.3692 38.1739 68.2348 36.1976 66.5088 35.0286Z" fill="#00A793"/>
</g>
<g id="Group_29">
<path id="Vector_98" d="M62.1159 30.0788C65.4545 28.6959 67.04 24.8682 65.657 21.5295C64.2741 18.1908 60.4464 16.6054 57.1077 17.9884C53.769 19.3713 52.1836 23.199 53.5666 26.5377C54.9495 29.8763 58.7772 31.4618 62.1159 30.0788Z" fill="#00A793"/>
<path id="Vector_99" d="M59.6094 31.7687C56.871 31.7687 54.6514 29.5491 54.6514 26.8107V24.2366C54.6514 21.4982 56.871 19.2786 59.6094 19.2786C62.3477 19.2786 64.5673 21.4982 64.5673 24.2366V26.8107C64.5669 29.5491 62.3473 31.7687 59.6094 31.7687Z" fill="white"/>
<path id="Vector_100" d="M59.6092 31.7686C59.0593 31.7686 58.5302 31.6791 58.0361 31.5137V32.4589C58.5311 32.6247 59.0589 32.7181 59.6092 32.7181C60.16 32.7181 60.6878 32.6247 61.1823 32.4589V31.5137C60.6878 31.6791 60.1591 31.7686 59.6092 31.7686Z" fill="#D1D3D4"/>
<path id="Vector_101" d="M54.6515 26.8108V25.2615C53.7696 25.2615 53.0547 25.9764 53.0547 26.8583C53.0547 27.7403 53.7696 28.4552 54.6515 28.4552C54.744 28.4552 54.8348 28.4472 54.9232 28.4322C54.7473 27.9244 54.6515 27.3791 54.6515 26.8108Z" fill="white"/>
<path id="Vector_102" d="M64.5666 25.2612V26.8106C64.5666 27.3784 64.4707 27.9242 64.2949 28.432C64.3832 28.447 64.4741 28.4549 64.5666 28.4549C65.4485 28.4549 66.1638 27.74 66.1638 26.8581C66.1638 25.9761 65.4485 25.2612 64.5666 25.2612Z" fill="white"/>
<path id="Vector_103" d="M59.6094 31.0566C56.871 31.0566 54.6514 28.837 54.6514 26.0986V26.8106C54.6514 29.5489 56.871 31.7686 59.6094 31.7686C62.3477 31.7686 64.5673 29.5489 64.5673 26.8106V26.0986C64.5669 28.837 62.3473 31.0566 59.6094 31.0566Z" fill="#E6E7E8"/>
<path id="Vector_104" d="M54.6514 24.2365V25.213C56.5894 24.0832 57.8946 21.9889 57.9038 19.5859C56.007 20.2821 54.6514 22.0985 54.6514 24.2365Z" fill="#E6E7E8"/>
<path id="Vector_105" d="M62.2069 25.3897C63.0397 25.3897 63.8341 25.2293 64.5665 24.9456V24.2366C64.5665 21.4982 62.3469 19.2786 59.6085 19.2786C58.175 19.2786 56.8877 19.8906 55.9824 20.8629C56.8331 23.4896 59.2973 25.3897 62.2069 25.3897Z" fill="#E6E7E8"/>
<path id="Vector_106" d="M55.6973 18.7891C56.0255 22.0953 58.8151 24.6778 62.2075 24.6778C63.6744 24.6778 65.0283 24.1949 66.1198 23.3796C65.7915 20.0735 63.002 17.491 59.6096 17.491C58.1423 17.491 56.7883 17.9738 55.6973 18.7891Z" fill="#006F62"/>
<path id="Vector_107" d="M53.0664 24.0339C53.0664 24.3318 53.0881 24.6242 53.1268 24.9113C55.8826 24.141 57.9052 21.613 57.9052 18.611C57.9052 18.3131 57.8836 18.0207 57.8448 17.7336C55.0886 18.5039 53.0664 21.0319 53.0664 24.0339Z" fill="#00A793"/>
<g id="Group_30">
<path id="Vector_108" d="M58.1009 26.1613C58.1009 26.4929 57.8318 26.762 57.5002 26.762C57.1685 26.762 56.8994 26.4929 56.8994 26.1613C56.8994 25.8297 57.1681 25.5605 57.5002 25.5605C57.8318 25.5605 58.1009 25.8297 58.1009 26.1613Z" fill="#006F62"/>
<path id="Vector_109" d="M62.7601 26.1613C62.7601 26.4929 62.4914 26.762 62.1593 26.762C61.8277 26.762 61.5586 26.4929 61.5586 26.1613C61.5586 25.8297 61.8277 25.5605 62.1593 25.5605C62.4914 25.5605 62.7601 25.8297 62.7601 26.1613Z" fill="#006F62"/>
</g>
<g id="Group_31">
<path id="Vector_110" d="M54.6512 26.8107V25.9404C54.1442 25.9404 53.7334 26.3512 53.7334 26.8582C53.7334 27.3648 54.1442 27.776 54.6512 27.776C54.6832 27.776 54.7141 27.7697 54.7453 27.7664C54.6845 27.4573 54.6512 27.1382 54.6512 26.8107Z" fill="#E6E7E8"/>
<path id="Vector_111" d="M64.5717 26.8107V25.9404C65.0787 25.9404 65.4895 26.3512 65.4895 26.8582C65.4895 27.3648 65.0787 27.776 64.5717 27.776C64.5396 27.776 64.5088 27.7697 64.4775 27.7664C64.5379 27.4573 64.5717 27.1382 64.5717 26.8107Z" fill="#E6E7E8"/>
</g>
</g>
</g>
</g>
<g id="Group_32">
<g id="Group_33">
<path id="Vector_112" d="M42.6467 18.6196C41.7664 18.6196 41.0527 19.3333 41.0527 20.214C41.0527 20.6872 41.2627 21.1076 41.5901 21.3992C41.8651 20.9788 42.1097 20.5364 42.3042 20.0661C42.4421 19.9303 42.5775 19.7919 42.7083 19.6495C42.7787 19.6553 42.8491 19.6603 42.9208 19.6603C43.7736 19.6603 44.5293 19.2508 45.0075 18.6196H42.6467Z" fill="#D1D3D4"/>
</g>
<path id="Vector_113" d="M41.3865 18.5678C41.4649 18.6012 41.5515 18.6195 41.6419 18.6195H42.6463H45.0068C45.3401 18.18 45.5401 17.6342 45.5401 17.0402C45.5401 16.4765 45.3605 15.9562 45.0576 15.5287C45.3576 14.5406 45.5205 13.4928 45.5205 12.4067C45.5205 11.9701 45.4888 11.541 45.438 11.1182L45.4372 11.1186C44.4861 11.4831 43.6512 12.0797 43.0021 12.8396L43.0009 12.8412C42.9259 12.9291 42.8551 13.0208 42.7847 13.1133C42.7626 13.1424 42.7397 13.1703 42.7184 13.1999C42.6597 13.2803 42.6043 13.3632 42.5497 13.4466C42.5205 13.4911 42.491 13.5349 42.463 13.5803C42.416 13.6565 42.371 13.7344 42.3272 13.8132C42.296 13.869 42.2652 13.9252 42.236 13.9819C42.1977 14.0556 42.1614 14.1302 42.126 14.2056C42.0956 14.271 42.0669 14.3368 42.0385 14.4031C42.0081 14.4743 41.979 14.5464 41.951 14.6189C41.9227 14.6934 41.8973 14.7689 41.8719 14.8447C41.849 14.913 41.8261 14.9813 41.8056 15.0509C41.7811 15.1355 41.7598 15.2213 41.7386 15.3071C41.7227 15.3713 41.7057 15.4346 41.6919 15.4996C41.6711 15.5991 41.6548 15.7008 41.6386 15.802C41.6303 15.8558 41.619 15.9087 41.6119 15.9628C41.5915 16.1199 41.5761 16.2782 41.5678 16.4386C41.2407 16.4761 40.9854 16.7506 40.9854 17.0877V17.9629C40.9858 18.235 41.1512 18.4683 41.3865 18.5678Z" fill="#E7AD27"/>
<g id="Group_34">
<path id="Vector_114" d="M26.9283 18.6194H24.5674C25.0456 19.2505 25.8014 19.6601 26.6541 19.6601C26.7258 19.6601 26.7966 19.6551 26.867 19.6492C26.9974 19.7921 27.1328 19.9304 27.2707 20.0658C27.4653 20.5362 27.7098 20.9786 27.9852 21.3994C28.3126 21.1073 28.5226 20.687 28.5226 20.2137C28.5226 19.333 27.8086 18.6194 26.9283 18.6194Z" fill="#D1D3D4"/>
<path id="Vector_115" d="M24.1406 11.1204L24.1396 11.1194L24.1406 11.1204Z" fill="#D1D3D4"/>
</g>
<path id="Vector_116" d="M28.007 16.4391C27.9987 16.2787 27.9833 16.1204 27.9629 15.9633C27.9558 15.9091 27.945 15.8562 27.9362 15.8021C27.9204 15.7008 27.9041 15.5996 27.8833 15.5004C27.8696 15.435 27.8525 15.3713 27.8367 15.3071C27.8158 15.2213 27.7946 15.1359 27.77 15.0518C27.7496 14.9822 27.7267 14.9139 27.7038 14.8451C27.6783 14.7693 27.6529 14.6939 27.6246 14.6193C27.5971 14.5468 27.5675 14.4748 27.5375 14.4035C27.5096 14.3373 27.4805 14.2715 27.45 14.2061C27.4146 14.1307 27.378 14.0557 27.3401 13.9819C27.3109 13.9253 27.2801 13.8699 27.2492 13.8145C27.2051 13.7357 27.1601 13.6574 27.1126 13.5807C27.0847 13.5358 27.0555 13.492 27.0264 13.4478C26.9714 13.3645 26.916 13.2812 26.8572 13.2008C26.836 13.1716 26.8135 13.1437 26.7918 13.1154C26.1169 12.2255 25.2021 11.5277 24.141 11.1203L24.1401 11.1199C24.1276 11.2244 24.1101 11.3273 24.1006 11.4332C24.096 11.4832 24.0931 11.5336 24.0893 11.584C24.0685 11.856 24.0547 12.1301 24.0547 12.4076C24.0547 12.6401 24.0647 12.87 24.0793 13.0987C24.0814 13.1283 24.0839 13.1579 24.086 13.1875C24.1443 13.9961 24.2901 14.7801 24.5176 15.5296C24.2147 15.957 24.0352 16.4774 24.0352 17.041C24.0352 17.6351 24.2351 18.1809 24.5684 18.6204H26.9293H27.9337C28.0245 18.6204 28.1108 18.6021 28.1891 18.5687C28.4245 18.4692 28.5899 18.2359 28.5899 17.9638V17.0885C28.5895 16.7507 28.3345 16.4761 28.007 16.4391Z" fill="#E7AD27"/>
</g>
<g id="Group_35">
<g id="Group_36">
<path id="Vector_117" d="M48.4643 44.845H21.1123C19.822 44.845 18.7764 43.7993 18.7764 42.5091V37.6128C18.7764 31.7228 23.551 26.9478 29.441 26.9478H40.1352C46.0251 26.9478 50.7998 31.7224 50.7998 37.6128V42.5091C50.8002 43.7993 49.7541 44.845 48.4643 44.845Z" fill="#006F62"/>
<path id="Vector_118" d="M46.1084 28.7761V44.8449H48.4647C49.7549 44.8449 50.8006 43.7992 50.8006 42.509V37.6127C50.8006 33.9357 48.9396 30.6933 46.1084 28.7761Z" fill="#00A793"/>
<path id="Vector_119" d="M40.5961 26.9476L37.3699 25.5574V26.9476L34.7894 30.9695L32.2086 26.9476V25.5574L28.9824 26.9476L34.789 42.7035H34.7894L40.5961 26.9476Z" fill="#D1D3D4"/>
<path id="Vector_120" d="M28.9824 26.9476L31.4208 33.557C31.5191 33.8236 31.8603 33.8982 32.0615 33.6974L34.7894 30.9695L32.209 26.9476V25.5574L28.9824 26.9476Z" fill="white"/>
<path id="Vector_121" d="M40.5947 26.9476L38.1563 33.557C38.058 33.8236 37.7164 33.8982 37.5156 33.6974L34.7881 30.9695L37.3685 26.9476V25.5574L40.5947 26.9476Z" fill="white"/>
<path id="Vector_122" d="M37.3683 22.1338H32.207V25.8407V26.9476L34.7875 30.9695L37.3683 26.9476V26.7618V22.1338Z" fill="#E6E7E8"/>
<path id="Vector_123" d="M36.9485 33.1297L35.3388 34.7395C35.0346 35.0436 34.5418 35.0436 34.2377 34.7395L32.6279 33.1297L34.7884 30.9692L36.9485 33.1297Z" fill="#026244"/>
<path id="Vector_124" d="M35.3389 34.7393C35.0348 35.0434 34.542 35.0434 34.2378 34.7393L33.6863 34.1877L33.208 38.4146L34.7886 42.7048L36.3692 38.4146L35.8909 34.1882L35.3389 34.7393Z" fill="#006F62"/>
<path id="Vector_125" d="M27.1726 33.8682L28.5462 32.6572C28.8003 32.433 28.667 32.0139 28.3299 31.9781L26.7173 31.8056C26.4661 31.779 26.3065 31.5236 26.3927 31.2857L27.925 27.0572C28.2754 27.0068 28.6295 26.9714 28.9878 26.9597L34.7889 42.7048L27.1439 34.4244C26.9956 34.264 27.0085 34.0128 27.1726 33.8682Z" fill="#09C7B0"/>
<path id="Vector_126" d="M42.4044 33.8682L41.0309 32.6572C40.7767 32.433 40.9101 32.0139 41.2471 31.9781L42.8598 31.8056C43.111 31.779 43.2705 31.5236 43.1843 31.2857L41.652 27.0572C41.3017 27.0068 40.9471 26.9714 40.5893 26.9597L34.7881 42.7048L42.4332 34.4244C42.5811 34.264 42.5681 34.0128 42.4044 33.8682Z" fill="#09C7B0"/>
<path id="Vector_127" d="M44.2662 41.6086H39.0103C38.7079 41.6086 38.4629 41.8536 38.4629 42.1561C38.4629 42.4585 38.7079 42.7035 39.0103 42.7035H44.2662C44.5686 42.7035 44.8136 42.4585 44.8136 42.1561C44.8136 41.8536 44.5682 41.6086 44.2662 41.6086Z" fill="#09C7B0"/>
<path id="Vector_128" d="M23.4686 44.8449V28.7761C20.6373 30.6933 18.7764 33.9357 18.7764 37.6127V42.509C18.7764 43.7992 19.822 44.8449 21.1123 44.8449H23.4686Z" fill="#00A793"/>
</g>
<g id="Group_37">
<path id="Vector_129" d="M34.789 21.4735C40.7169 21.4735 45.5224 16.668 45.5224 10.7402C45.5224 4.81232 40.7169 0.00683594 34.789 0.00683594C28.8611 0.00683594 24.0557 4.81232 24.0557 10.7402C24.0557 16.668 28.8611 21.4735 34.789 21.4735Z" fill="#00A793"/>
<path id="Vector_130" d="M34.7892 23.4286C30.2974 23.4286 26.6562 19.7875 26.6562 15.2957V11.0726C26.6562 6.5808 30.2974 2.9397 34.7892 2.9397C39.281 2.9397 42.9221 6.5808 42.9221 11.0726V15.2957C42.9225 19.7871 39.281 23.4286 34.7892 23.4286Z" fill="white"/>
<path id="Vector_131" d="M34.7889 23.4285C33.8869 23.4285 33.0191 23.2815 32.208 23.0103V24.5608C33.0195 24.8325 33.8857 24.9858 34.7884 24.9858C35.6916 24.9858 36.5573 24.8325 37.3693 24.5608V23.0103C36.559 23.2815 35.6912 23.4285 34.7889 23.4285Z" fill="#D1D3D4"/>
<path id="Vector_132" d="M26.6557 15.2958V12.7542C25.2089 12.7542 24.0361 13.9269 24.0361 15.3737C24.0361 16.8206 25.2089 17.9938 26.6557 17.9938C26.8074 17.9938 26.9561 17.9804 27.1011 17.9559C26.8124 17.1222 26.6557 16.2274 26.6557 15.2958Z" fill="white"/>
<path id="Vector_133" d="M42.9219 12.7542V15.2958C42.9219 16.2274 42.7653 17.1222 42.4766 17.9559C42.6211 17.9804 42.7699 17.9938 42.9219 17.9938C44.3688 17.9938 45.5415 16.821 45.5415 15.3737C45.5415 13.9269 44.3688 12.7542 42.9219 12.7542Z" fill="white"/>
<path id="Vector_134" d="M34.7892 22.2606C30.2974 22.2606 26.6562 18.6195 26.6562 14.1277V15.2958C26.6562 19.7876 30.2974 23.4288 34.7892 23.4288C39.281 23.4288 42.9221 19.7876 42.9221 15.2958V14.1277C42.9225 18.6195 39.281 22.2606 34.7892 22.2606Z" fill="#E6E7E8"/>
<path id="Vector_135" d="M26.6562 11.0727V12.6746C29.8353 10.8215 31.9767 7.38581 31.9917 3.44434C28.8805 4.58583 26.6562 7.56537 26.6562 11.0727Z" fill="#E6E7E8"/>
<path id="Vector_136" d="M39.0509 12.9641C40.417 12.9641 41.7201 12.7012 42.922 12.2358V11.0731C42.922 6.58129 39.2809 2.94019 34.7891 2.94019C32.4378 2.94019 30.326 3.94378 28.8408 5.53937C30.2356 9.84704 34.2779 12.9641 39.0509 12.9641Z" fill="#E6E7E8"/>
<path id="Vector_137" d="M28.3711 2.13658C28.9098 7.56033 33.4853 11.7963 39.0507 11.7963C41.457 11.7963 43.6783 11.0044 45.4685 9.66709C44.9294 4.24334 40.3542 0.00732422 34.7889 0.00732422C32.3826 0.00732422 30.1612 0.799284 28.3711 2.13658Z" fill="#006F62"/>
<path id="Vector_138" d="M24.0557 10.7403C24.0557 11.229 24.0915 11.7085 24.1544 12.1796C28.6754 10.9157 31.9928 6.76922 31.9928 1.84456C31.9928 1.35589 31.957 0.876379 31.894 0.404785C27.3731 1.66917 24.0557 5.81604 24.0557 10.7403Z" fill="#00A793"/>
<g id="Group_38">
<path id="Vector_139" d="M31.3271 15.2154C31.8712 15.2154 32.3123 14.7743 32.3123 14.2301C32.3123 13.686 31.8712 13.2449 31.3271 13.2449C30.7829 13.2449 30.3418 13.686 30.3418 14.2301C30.3418 14.7743 30.7829 15.2154 31.3271 15.2154Z" fill="#006F62"/>
<path id="Vector_140" d="M38.9706 15.2154C39.5148 15.2154 39.9559 14.7743 39.9559 14.2301C39.9559 13.686 39.5148 13.2449 38.9706 13.2449C38.4265 13.2449 37.9854 13.686 37.9854 14.2301C37.9854 14.7743 38.4265 15.2154 38.9706 15.2154Z" fill="#006F62"/>
</g>
<g id="Group_39">
<path id="Vector_141" d="M26.6556 15.2957V13.8684C25.824 13.8684 25.1504 14.5425 25.1504 15.3736C25.1504 16.2051 25.8245 16.8792 26.6556 16.8792C26.7085 16.8792 26.7585 16.8688 26.8101 16.8638C26.711 16.3559 26.6556 15.8323 26.6556 15.2957Z" fill="#E6E7E8"/>
<path id="Vector_142" d="M42.929 15.2957V13.8684C43.7605 13.8684 44.4342 14.5425 44.4342 15.3736C44.4342 16.2051 43.7601 16.8792 42.929 16.8792C42.8761 16.8792 42.8261 16.8688 42.7744 16.8638C42.874 16.3559 42.929 15.8323 42.929 15.2957Z" fill="#E6E7E8"/>
</g>
</g>
</g>
</g>
</g>
<defs>
<clipPath id="clip0_4574_2835">
<rect width="69.7674" height="48" fill="white" transform="translate(0.116211)"/>
</clipPath>
</defs>
</svg>
