<svg width="164" height="20" viewBox="0 0 164 20" fill="none" xmlns="http://www.w3.org/2000/svg">
<path d="M0.5705 18.4965V0.953499C0.5705 0.688499 0.7825 0.449999 1.074 0.449999H7.116C10.3755 0.449999 13.052 3.1 13.052 6.3065C13.052 9.5925 10.3755 12.269 7.1425 12.269H3.3V18.4965C3.3 18.7615 3.0615 19 2.7965 19H1.074C0.7825 19 0.5705 18.7615 0.5705 18.4965ZM3.3 9.672H6.957C8.7855 9.672 10.3225 8.188 10.3225 6.28C10.3225 4.478 8.7855 3.1 6.957 3.1H3.3V9.672ZM14.9486 19C14.5511 19 14.3391 18.6555 14.4981 18.311L22.6336 0.476498C22.7131 0.317499 22.9516 0.184999 23.0841 0.184999H23.3491C23.4816 0.184999 23.7201 0.317499 23.7996 0.476498L31.8821 18.311C32.0411 18.6555 31.8291 19 31.4316 19H29.7621C29.4441 19 29.2586 18.841 29.1526 18.6025L27.5096 14.972H18.8441C18.3141 16.191 17.7576 17.3835 17.2276 18.6025C17.1481 18.788 16.9361 19 16.6181 19H14.9486ZM19.8776 12.693H26.5026L23.2431 5.432H23.1106L19.8776 12.693ZM36.125 18.4965V0.953499C36.125 0.688499 36.337 0.449999 36.6285 0.449999H43.8365C47.0165 0.449999 49.6135 2.9675 49.6135 6.121C49.6135 8.559 47.997 10.573 45.6915 11.5005L49.322 18.2315C49.5075 18.576 49.322 19 48.8715 19H46.8045C46.5925 19 46.4335 18.8675 46.3805 18.7615L42.856 11.739H38.8545V18.4965C38.8545 18.7615 38.616 19 38.351 19H36.6285C36.337 19 36.125 18.7615 36.125 18.4965ZM38.9075 9.46H43.6245C45.347 9.46 46.8575 8.0025 46.8575 6.174C46.8575 4.4515 45.347 3.0205 43.6245 3.0205H38.9075V9.46ZM53.298 19C52.9005 19 52.6885 18.6555 52.8475 18.311L60.983 0.476498C61.0625 0.317499 61.301 0.184999 61.4335 0.184999H61.6985C61.831 0.184999 62.0695 0.317499 62.149 0.476498L70.2315 18.311C70.3905 18.6555 70.1785 19 69.781 19H68.1115C67.7935 19 67.608 18.841 67.502 18.6025L65.859 14.972H57.1935C56.6635 16.191 56.107 17.3835 55.577 18.6025C55.4975 18.788 55.2855 19 54.9675 19H53.298ZM58.227 12.693H64.852L61.5925 5.432H61.46L58.227 12.693ZM74.4744 18.4965V0.953499C74.4744 0.688499 74.6864 0.449999 74.9779 0.449999H76.7269C76.9919 0.449999 77.2304 0.688499 77.2304 0.953499V16.5355H84.4119C84.7034 16.5355 84.9154 16.774 84.9154 17.039V18.4965C84.9154 18.7615 84.7034 19 84.4119 19H74.9779C74.6864 19 74.4744 18.7615 74.4744 18.4965ZM87.7559 9.7515C87.7559 4.4515 91.9694 0.184999 97.2694 0.184999C102.569 0.184999 106.809 4.4515 106.809 9.7515C106.809 15.0515 102.569 19.265 97.2694 19.265C91.9694 19.265 87.7559 15.0515 87.7559 9.7515ZM90.4059 9.7515C90.4059 13.541 93.5064 16.615 97.2694 16.615C101.059 16.615 104.159 13.541 104.159 9.7515C104.159 5.9885 101.059 2.835 97.2694 2.835C93.5064 2.835 90.4059 5.9885 90.4059 9.7515ZM110.033 19C109.635 19 109.423 18.6555 109.582 18.311L117.718 0.476498C117.797 0.317499 118.036 0.184999 118.168 0.184999H118.433C118.566 0.184999 118.804 0.317499 118.884 0.476498L126.966 18.311C127.125 18.6555 126.913 19 126.516 19H124.846C124.528 19 124.343 18.841 124.237 18.6025L122.594 14.972H113.928C113.398 16.191 112.842 17.3835 112.312 18.6025C112.232 18.788 112.02 19 111.702 19H110.033ZM114.962 12.693H121.587L118.327 5.432H118.195L114.962 12.693ZM131.209 18.4965V0.661999C131.209 0.396999 131.448 0.184999 131.713 0.184999H132.375L143.876 13.488H143.903V0.953499C143.903 0.688499 144.115 0.449999 144.406 0.449999H146.102C146.367 0.449999 146.606 0.688499 146.606 0.953499V18.788C146.606 19.053 146.367 19.265 146.102 19.265H145.413L133.912 5.591H133.886V18.4965C133.886 18.7615 133.674 19 133.382 19H131.713C131.448 19 131.209 18.7615 131.209 18.4965ZM152.314 17.1715C152.075 16.9595 151.89 16.774 152.155 16.3235C152.393 15.979 152.605 15.5815 152.844 15.237C153.082 14.8925 153.453 14.7865 153.745 15.025C153.904 15.1575 155.944 16.8535 157.985 16.8535C159.813 16.8535 160.979 15.7405 160.979 14.389C160.979 12.799 159.601 11.792 156.978 10.7055C154.275 9.566 152.155 8.1615 152.155 5.0875C152.155 3.0205 153.745 0.184999 157.958 0.184999C160.608 0.184999 162.596 1.563 162.861 1.7485C163.073 1.881 163.285 2.252 163.02 2.6495C162.808 2.9675 162.569 3.3385 162.357 3.6565C162.145 4.001 161.801 4.16 161.43 3.9215C161.244 3.8155 159.389 2.5965 157.852 2.5965C155.626 2.5965 154.858 4.001 154.858 4.9815C154.858 6.492 156.024 7.4195 158.223 8.3205C161.297 9.566 163.921 11.0235 163.921 14.2565C163.921 17.0125 161.456 19.265 158.011 19.265C154.778 19.265 152.738 17.569 152.314 17.1715Z" fill="white"/>
</svg>
