<svg xmlns="http://www.w3.org/2000/svg" width="54" height="48" viewBox="0 0 54 48" fill="none">
  <g clip-path="url(#clip0_4574_1250)">
    <path d="M21.4728 8.0066H20.9349C21.171 6.64713 23.5932 5.22101 27.0004 5.22101C30.4076 5.22101 32.8298 6.64713 33.0658 8.0066H32.5279C32.2419 8.0066 32.0098 8.23867 32.0098 8.52468V9.47477H29.5273V9.46406H24.4738V9.47477H21.9909V8.52508C21.9909 8.23867 21.7589 8.0066 21.4728 8.0066Z" fill="#012B1E"/>
    <path fill-rule="evenodd" clip-rule="evenodd" d="M48.8189 35.3059C47.5657 34.0528 51.2216 32.6957 49.6123 32.3307L51.6803 23.7669C52.0731 23.3626 52.4507 22.9489 52.8105 22.5252C53.1231 22.1571 53.285 21.6842 53.285 21.201V11.5479C53.285 11.0937 53.1346 10.6767 52.8867 10.3352C52.7443 10.1388 52.5725 9.96508 52.371 9.82901C52.2607 9.75443 52.1429 9.69017 52.0191 9.63781C51.7712 9.53308 51.4982 9.47477 51.2122 9.47477H49.608H36.1993V8.52508C36.1993 8.23906 35.9673 8.007 35.6812 8.007H35.1461C34.9684 5.26663 31.4608 3.14868 27.0012 3.14868C22.5415 3.14868 19.034 5.26663 18.8563 8.007H18.3211C18.0351 8.007 17.803 8.23906 17.803 8.52508V9.47516H4.39318H2.78895C2.50293 9.47516 2.23 9.53308 1.98207 9.6382C1.8579 9.69057 1.74008 9.75483 1.6298 9.82941C1.51952 9.90399 1.41678 9.98888 1.32316 10.0825C0.947886 10.4578 0.71582 10.9759 0.71582 11.5483V21.2014C0.71582 21.6846 0.877671 22.1575 1.19027 22.5256C1.54967 22.9493 1.92733 23.363 2.32045 23.7673V42.9653V45.5565C2.32045 46.7013 3.24832 47.6292 4.39318 47.6292H42.093H48.8189C50.7369 47.6928 51.5709 47.5028 51.665 45.8724C51.3975 31.0854 51.7941 36.6944 51.199 40.6613C47.0206 34.1158 38.9859 39.2999 48.8189 35.3059ZM20.9349 8.0066H21.4728C21.7589 8.0066 21.9909 8.23867 21.9909 8.52508V9.47477H24.4738V9.46406H29.5273V9.47477H32.0098V8.52468C32.0098 8.23867 32.2419 8.0066 32.5279 8.0066H33.0658C32.8298 6.64713 30.4076 5.22101 27.0004 5.22101C23.5932 5.22101 21.171 6.64713 20.9349 8.0066Z" fill="#012B1E"/>
    <path d="M49.6075 44.852H4.39304C3.24818 44.852 2.32031 43.9237 2.32031 42.7793V11.3623C2.32031 10.2174 3.24818 9.28955 4.39304 9.28955H49.6075C50.7523 9.28955 51.6802 10.2178 51.6802 11.3623V42.7793C51.6802 43.9237 50.7523 44.852 49.6075 44.852Z" fill="#006F62"/>
    <path d="M49.6075 42.2607H4.39304C3.24818 42.2607 2.32031 41.3328 2.32031 40.188V8.77097C2.32031 7.62611 3.24818 6.69824 4.39304 6.69824H49.6075C50.7523 6.69824 51.6802 7.62651 51.6802 8.77097V40.188C51.6802 41.3328 50.7523 42.2607 49.6075 42.2607Z" fill="#00A793"/>
    <path d="M27.4852 31.54H26.5137V42.2607H27.4852V31.54Z" fill="#026244"/>
    <path d="M27 30.5146C37.8051 30.5146 47.3091 26.2303 52.8101 19.7483C53.1227 19.3802 53.2845 18.9073 53.2845 18.4241V8.77097C53.2845 7.62611 52.3567 6.69824 51.2118 6.69824H2.78855C1.64369 6.69824 0.71582 7.62651 0.71582 8.77097V18.4241C0.71582 18.9073 0.877671 19.3802 1.19027 19.7483C6.69083 26.2303 16.1948 30.5146 27 30.5146Z" fill="#006F62"/>
    <path d="M51.2114 6.69824H2.78855C1.64369 6.69824 0.71582 7.62611 0.71582 8.77097V12.3983C0.71582 11.2535 1.64369 10.3256 2.78855 10.3256H51.2114C52.3563 10.3256 53.2842 11.2535 53.2842 12.3983V8.77097C53.2845 7.62611 52.3563 6.69824 51.2114 6.69824Z" fill="#00A793"/>
    <path d="M21.4724 5.22974H18.3198C18.0338 5.22974 17.8018 5.4618 17.8018 5.74782V6.6979H21.9908V5.74822C21.9905 5.4618 21.7584 5.22974 21.4724 5.22974Z" fill="#FEDE3A"/>
    <path d="M35.6804 5.22974H32.5278C32.2418 5.22974 32.0098 5.4618 32.0098 5.74782V6.6979H36.1989V5.74822C36.1989 5.4618 35.9668 5.22974 35.6804 5.22974Z" fill="#FEDE3A"/>
    <path d="M33.0658 5.22965H35.1453C34.9676 2.48929 31.46 0.371338 27.0004 0.371338C22.5408 0.371338 19.0332 2.48929 18.8555 5.22965H20.9349C21.171 3.87018 23.5932 2.44407 27.0004 2.44407C30.4076 2.44407 32.8298 3.87018 33.0658 5.22965Z" fill="#00A793"/>
    <path d="M33.0648 5.22971H34.1053C33.9062 3.10065 30.806 1.40796 26.999 1.40796C23.1919 1.40796 20.0917 3.10065 19.8926 5.22971H20.9331C21.1691 3.87024 23.5914 2.44412 26.9986 2.44412C30.4058 2.44412 32.8288 3.87024 33.0648 5.22971Z" fill="#006F62"/>
    <path d="M29.5267 6.6875H24.4736V25.9046H29.5267V6.6875Z" fill="#026244"/>
    <path d="M29.5267 6.6875H24.4736V10.326H29.5267V6.6875Z" fill="#026244"/>
    <path d="M30.8189 31.54H23.1822C22.8037 31.54 22.4971 31.2333 22.4971 30.8549V26.5896C22.4971 26.2112 22.8037 25.9045 23.1822 25.9045H30.8189C31.1974 25.9045 31.504 26.2112 31.504 26.5896V30.8549C31.504 31.2333 31.1974 31.54 30.8189 31.54Z" fill="#FFF335"/>
    <path d="M30.8189 30.8794H23.1822C22.8037 30.8794 22.4971 30.5728 22.4971 30.1943V30.8548C22.4971 31.2333 22.8037 31.5399 23.1822 31.5399H30.8189C31.1974 31.5399 31.504 31.2333 31.504 30.8548V30.1943C31.504 30.5728 31.1974 30.8794 30.8189 30.8794Z" fill="#F7CB15"/>
    <path d="M29.3406 29.3764H24.6604C24.3268 29.3764 24.0566 29.1063 24.0566 28.7727V28.0681C24.0566 27.7345 24.3268 27.4644 24.6604 27.4644H29.3406C29.6742 27.4644 29.9444 27.7349 29.9444 28.0681V28.7727C29.9444 29.1063 29.6742 29.3764 29.3406 29.3764Z" fill="#F7CB15"/>
  </g>
  <defs>
    <clipPath id="clip0_4574_1250">
      <rect width="53.157" height="48" fill="white" transform="translate(0.421875)"/>
    </clipPath>
  </defs>
</svg>
