<svg width="46" height="48" viewBox="0 0 46 48" fill="none" xmlns="http://www.w3.org/2000/svg">
<g id="Group">
<path id="Vector" d="M43.4835 2.59131H2.51699C1.29021 2.59131 0.295898 3.58562 0.295898 4.8124V9.19276V45.7789C0.295898 47.0057 1.29021 48 2.51699 48H43.4839C44.7107 48 45.705 47.0057 45.705 45.7789V4.8124C45.7046 3.58562 44.7103 2.59131 43.4835 2.59131Z" fill="#012B1E"/>
<g id="Group_2">
<path id="Vector_2" d="M43.4835 45.4087H2.51699C1.29021 45.4087 0.295898 44.4144 0.295898 43.1876V2.22109C0.295898 0.994309 1.29021 0 2.51699 0H43.4839C44.7107 0 45.705 0.994309 45.705 2.22109V43.188C45.7046 44.4144 44.7103 45.4087 43.4835 45.4087Z" fill="#E6FFFC"/>
<g id="Group_3">
<path id="Vector_3" d="M14.8057 22.3768H4.81081C3.99307 22.3768 3.33008 21.7138 3.33008 20.896V10.9011C3.33008 10.0834 3.99307 9.42041 4.81081 9.42041H14.8057C15.6234 9.42041 16.2864 10.0834 16.2864 10.9011V20.896C16.2864 21.7138 15.6234 22.3768 14.8057 22.3768Z" fill="#FFF335"/>
<g id="Group_4">
<g id="Group_5">
<path id="Vector_4" d="M14.7685 21.9781V22.3779H4.84766V21.9781C4.84766 21.9078 4.85136 21.8374 4.85506 21.7671C4.85876 21.7227 4.85876 21.6819 4.86617 21.6412C4.86987 21.5968 4.87357 21.5561 4.88097 21.5154C4.88838 21.4598 4.89578 21.408 4.90689 21.3525C4.9439 21.1489 5.00313 20.9564 5.07717 20.7676C5.09568 20.7158 5.11789 20.6639 5.1401 20.6158C5.3363 20.179 5.62504 19.7903 5.98411 19.4831C6.03594 19.4386 6.08777 19.3979 6.13959 19.3572C6.1618 19.3387 6.18401 19.3202 6.20993 19.3054C6.22473 19.2943 6.23954 19.2795 6.25435 19.2721C6.26916 19.261 6.28396 19.2498 6.29877 19.2424V19.2387C6.70227 18.9648 7.1724 18.7797 7.67955 18.7057C7.7906 18.6909 7.89796 18.6798 8.00901 18.6761C8.05713 18.6724 8.10156 18.6724 8.14968 18.6724H11.4665C11.5146 18.6724 11.5591 18.6724 11.6072 18.6761C11.7182 18.6798 11.8256 18.6909 11.9366 18.7057C12.4438 18.7797 12.9139 18.9648 13.3174 19.2387V19.2424C13.3322 19.2498 13.347 19.261 13.3618 19.2721C13.3766 19.2795 13.3915 19.2943 13.4063 19.3054C13.5395 19.3979 13.6617 19.5016 13.7764 19.6163C13.869 19.7089 13.9578 19.8088 14.043 19.9088C14.0837 19.9606 14.1244 20.0124 14.1614 20.0679C14.1985 20.1235 14.2355 20.1753 14.2725 20.2345C14.3058 20.2864 14.3354 20.3382 14.365 20.3937C14.4539 20.5566 14.5316 20.7306 14.5908 20.9083C14.6057 20.9453 14.6168 20.986 14.6279 21.023C14.676 21.1822 14.713 21.3488 14.7352 21.5154C14.7426 21.5561 14.7463 21.5968 14.75 21.6412C14.7611 21.7523 14.7685 21.8633 14.7685 21.9781Z" fill="#1CAEE4"/>
<path id="Vector_5" d="M14.7685 21.9781V22.3779H13.3174V19.2388C13.3322 19.2499 13.347 19.261 13.3618 19.2721C13.3766 19.2795 13.3914 19.2943 13.4062 19.3054C13.5395 19.3979 13.6617 19.5016 13.7764 19.6164C13.869 19.7089 13.9578 19.8088 14.0429 19.9088C14.0837 19.9606 14.1244 20.0124 14.1614 20.068C14.1984 20.1235 14.2354 20.1753 14.2725 20.2346C14.3058 20.2864 14.3354 20.3382 14.365 20.3937C14.4538 20.5566 14.5316 20.7306 14.5908 20.9083C14.6056 20.9453 14.6167 20.986 14.6278 21.023C14.676 21.1822 14.713 21.3488 14.7352 21.5154C14.7426 21.5561 14.7463 21.5968 14.75 21.6412C14.7611 21.7523 14.7685 21.8634 14.7685 21.9781Z" fill="#00A793"/>
<path id="Vector_6" d="M10.6075 18.2429V18.6723L10.204 19.3016L9.80787 19.9198L9.41178 19.3016L9.00828 18.6723V18.2429L8.00879 18.6723V18.676L8.76396 20.7268L9.31923 22.2261L9.37476 22.3779H9.80787H10.241L10.2965 22.2261L10.8518 20.7268L11.607 18.676V18.6723L10.6075 18.2429Z" fill="#D1D3D4"/>
<path id="Vector_7" d="M8.00879 18.6731L8.76433 20.7213C8.79469 20.8038 8.90056 20.8272 8.96275 20.765L9.80824 19.9195L9.00865 18.6731V18.2422L8.00879 18.6731Z" fill="white"/>
<path id="Vector_8" d="M11.608 18.6731L10.8525 20.7213C10.8222 20.8038 10.7163 20.8272 10.6541 20.765L9.80859 19.9195L10.6082 18.6731V18.2422L11.608 18.6731Z" fill="white"/>
<path id="Vector_9" d="M10.6083 17.1816H9.00879V18.3303V18.6731L9.80838 19.9195L10.6083 18.6731V18.5169V17.1816Z" fill="#E6E7E8"/>
<path id="Vector_10" d="M10.4776 20.5892L9.97861 21.0882C9.88422 21.1826 9.7317 21.1826 9.63731 21.0882L9.13867 20.5892L9.80796 19.9199L10.4776 20.5892Z" fill="#026244"/>
<path id="Vector_11" d="M10.1485 20.918L9.97863 21.0879C9.8846 21.1823 9.73172 21.1823 9.63732 21.0879L9.46741 20.918V20.9191L9.31934 22.2258L9.37486 22.3776H10.2411L10.2966 22.2258L10.1485 20.9191V20.918Z" fill="#006F62"/>
<path id="Vector_12" d="M9.37457 22.3778H8.71935L7.43852 20.9897C7.3941 20.9415 7.3978 20.8638 7.44592 20.8194L7.87163 20.4418C7.95307 20.3715 7.91235 20.2419 7.805 20.2308L7.30525 20.179C7.22751 20.1716 7.17939 20.0901 7.2053 20.0161L7.67914 18.7056C7.79019 18.6908 7.89754 18.6797 8.0086 18.676L8.76377 20.7268L9.31904 22.2261L9.37457 22.3778Z" fill="#27C1E6"/>
<path id="Vector_13" d="M12.3105 20.179L11.8108 20.2308C11.7034 20.2419 11.6627 20.3715 11.7442 20.4418L12.1699 20.8194C12.218 20.8638 12.2217 20.9415 12.1773 20.9897L10.8964 22.3778H10.2412L10.2967 22.2261L10.852 20.7268L11.6072 18.676C11.7182 18.6797 11.8256 18.6908 11.9366 18.7056L12.4105 20.0161C12.4364 20.0901 12.3883 20.1716 12.3105 20.179Z" fill="#27C1E6"/>
<path id="Vector_14" d="M6.29877 19.2388V22.3779H4.84766V21.9781C4.84766 21.9078 4.85136 21.8374 4.85506 21.7671C4.85876 21.7227 4.85876 21.682 4.86617 21.6412C4.86987 21.5968 4.87357 21.5561 4.88097 21.5154C4.88838 21.4599 4.89578 21.408 4.90689 21.3525C4.9439 21.1489 5.00313 20.9564 5.07717 20.7676C5.09568 20.7158 5.11789 20.664 5.1401 20.6158C5.3363 20.179 5.62504 19.7903 5.98411 19.4831C6.03594 19.4387 6.08777 19.3979 6.13959 19.3572C6.1618 19.3387 6.18401 19.3202 6.20993 19.3054C6.23954 19.2795 6.26916 19.261 6.29877 19.2388Z" fill="#00A793"/>
</g>
<g id="Group_6">
<path id="Vector_15" d="M9.80851 16.9771C11.6455 16.9771 13.1346 15.488 13.1346 13.651C13.1346 11.8141 11.6455 10.325 9.80851 10.325C7.97156 10.325 6.48242 11.8141 6.48242 13.651C6.48242 15.488 7.97156 16.9771 9.80851 16.9771Z" fill="#00A793"/>
<path id="Vector_16" d="M9.00916 17.9336C9.26051 18.0176 9.52889 18.0654 9.80875 18.0654C10.0886 18.0654 10.357 18.018 10.6083 17.9336V17.1814H9.00879L9.00916 17.9336Z" fill="#D1D3D4"/>
<path id="Vector_17" d="M9.80828 17.5826C8.4164 17.5826 7.28809 16.4543 7.28809 15.0624V13.7538C7.28809 12.362 8.4164 11.2336 9.80828 11.2336C11.2002 11.2336 12.3285 12.362 12.3285 13.7538V15.0624C12.3289 16.4543 11.2002 17.5826 9.80828 17.5826Z" fill="white"/>
<path id="Vector_18" d="M7.28837 15.0624V14.2747C6.84008 14.2747 6.47656 14.6382 6.47656 15.0865C6.47656 15.5348 6.84008 15.8983 7.28837 15.8983C7.33613 15.8983 7.3824 15.892 7.4283 15.8842C7.33909 15.6266 7.28837 15.3508 7.28837 15.0624Z" fill="white"/>
<path id="Vector_19" d="M12.3294 14.2747V15.0624C12.3294 15.3504 12.2787 15.6262 12.1895 15.8842C12.235 15.892 12.2813 15.8983 12.3294 15.8983C12.7777 15.8983 13.1412 15.5348 13.1412 15.0865C13.1412 14.6382 12.7777 14.2747 12.3294 14.2747Z" fill="white"/>
<path id="Vector_20" d="M9.80828 17.2209C8.4164 17.2209 7.28809 16.0926 7.28809 14.7007V15.0627C7.28809 16.4546 8.4164 17.5829 9.80828 17.5829C11.2002 17.5829 12.3285 16.4546 12.3285 15.0627V14.7007C12.3289 16.0922 11.2002 17.2209 9.80828 17.2209Z" fill="#E6E7E8"/>
<path id="Vector_21" d="M7.28809 13.7539V14.2503C8.27314 13.6761 8.93688 12.6115 8.94132 11.3899C7.97737 11.7438 7.28809 12.667 7.28809 13.7539Z" fill="#E6E7E8"/>
<path id="Vector_22" d="M11.1298 14.34C11.5533 14.34 11.9567 14.2585 12.3292 14.1142V13.7536C12.3292 12.3617 11.2008 11.2334 9.80895 11.2334C9.08044 11.2334 8.42596 11.5444 7.96582 12.0389C8.39819 13.3742 9.65089 14.34 11.1298 14.34Z" fill="#E6E7E8"/>
<path id="Vector_23" d="M7.82031 10.9845C7.98726 12.6651 9.40506 13.9778 11.1297 13.9778C11.8753 13.9778 12.5638 13.7324 13.1184 13.3178C12.9514 11.6371 11.5336 10.3245 9.80893 10.3245C9.06338 10.3248 8.37484 10.5703 7.82031 10.9845Z" fill="#01B49F"/>
<path id="Vector_24" d="M6.48242 13.6508C6.48242 13.8022 6.49353 13.951 6.51315 14.0969C7.91429 13.7052 8.94228 12.4203 8.94228 10.8941C8.94228 10.7427 8.93118 10.5938 8.91156 10.448C7.51042 10.8397 6.48242 12.1249 6.48242 13.6508Z" fill="#00A793"/>
<g id="Group_7">
<path id="Vector_25" d="M9.04146 14.7322C9.04146 14.9006 8.90487 15.0376 8.73607 15.0376C8.56726 15.0376 8.43066 14.901 8.43066 14.7322C8.43066 14.5634 8.56726 14.4268 8.73607 14.4268C8.90487 14.4268 9.04146 14.5637 9.04146 14.7322Z" fill="#1CAEE4"/>
<path id="Vector_26" d="M11.4106 14.7322C11.4106 14.9006 11.274 15.0376 11.1052 15.0376C10.9364 15.0376 10.7998 14.901 10.7998 14.7322C10.7998 14.5634 10.9364 14.4268 11.1052 14.4268C11.274 14.4268 11.4106 14.5637 11.4106 14.7322Z" fill="#1CAEE4"/>
</g>
<g id="Group_8">
<path id="Vector_27" d="M7.28772 15.0625V14.6201C7.03007 14.6201 6.82129 14.8289 6.82129 15.0865C6.82129 15.3442 7.03007 15.553 7.28772 15.553C7.30401 15.553 7.31955 15.5496 7.33547 15.5482C7.30475 15.3912 7.28772 15.2287 7.28772 15.0625Z" fill="#E6E7E8"/>
<path id="Vector_28" d="M12.327 15.0659V14.6235C12.5847 14.6235 12.7935 14.8323 12.7935 15.09C12.7935 15.3476 12.5847 15.5564 12.327 15.5564C12.3108 15.5564 12.2952 15.5531 12.2793 15.5516C12.31 15.3946 12.327 15.2325 12.327 15.0659Z" fill="#E6E7E8"/>
</g>
</g>
</g>
</g>
<g id="Group_9">
<path id="Vector_29" d="M12.153 27.9059H4.44062C3.82723 27.9059 3.33008 27.4088 3.33008 26.7954C3.33008 26.182 3.82723 25.6848 4.44062 25.6848H12.1526C12.766 25.6848 13.2632 26.182 13.2632 26.7954C13.2635 27.4088 12.7664 27.9059 12.153 27.9059Z" fill="#026244"/>
<path id="Vector_30" d="M15.1759 32.2374H4.44062C3.82723 32.2374 3.33008 31.7403 3.33008 31.1269C3.33008 30.5135 3.82723 30.0164 4.44062 30.0164H15.1759C15.7893 30.0164 16.2864 30.5135 16.2864 31.1269C16.2864 31.7399 15.7893 32.2374 15.1759 32.2374Z" fill="#026244"/>
<path id="Vector_31" d="M8.37751 36.5685H4.44062C3.82723 36.5685 3.33008 36.0713 3.33008 35.458C3.33008 34.8446 3.82723 34.3474 4.44062 34.3474H8.37751C8.9909 34.3474 9.48805 34.8446 9.48805 35.458C9.48805 36.0713 8.9909 36.5685 8.37751 36.5685Z" fill="#026244"/>
<path id="Vector_32" d="M12.5595 40.9H4.44062C3.82723 40.9 3.33008 40.4029 3.33008 39.7895C3.33008 39.1761 3.82723 38.679 4.44062 38.679H12.5595C13.1728 38.679 13.67 39.1761 13.67 39.7895C13.67 40.4029 13.1728 40.9 12.5595 40.9Z" fill="#026244"/>
</g>
<g id="Group_10">
<path id="Vector_33" d="M29.6993 11.6415H20.6047C19.9913 11.6415 19.4941 11.1443 19.4941 10.531C19.4941 9.91756 19.9913 9.42041 20.6047 9.42041H29.6993C30.3127 9.42041 30.8099 9.91756 30.8099 10.531C30.8099 11.144 30.3127 11.6415 29.6993 11.6415Z" fill="#00A793"/>
<path id="Vector_34" d="M34.8363 18.3166H20.6047C19.9913 18.3166 19.4941 17.8194 19.4941 17.206C19.4941 16.5926 19.9913 16.0955 20.6047 16.0955H34.8363C35.4497 16.0955 35.9469 16.5926 35.9469 17.206C35.9469 17.8194 35.4497 18.3166 34.8363 18.3166Z" fill="#FFF335"/>
<path id="Vector_35" d="M34.8363 22.3815H20.6047C19.9913 22.3815 19.4941 21.8843 19.4941 21.2709C19.4941 20.6576 19.9913 20.1604 20.6047 20.1604H34.8363C35.4497 20.1604 35.9469 20.6576 35.9469 21.2709C35.9469 21.8843 35.4497 22.3815 34.8363 22.3815Z" fill="#FFF335"/>
<path id="Vector_36" d="M30.1206 27.9059H20.6047C19.9913 27.9059 19.4941 27.4088 19.4941 26.7954C19.4941 26.182 19.9913 25.6848 20.6047 25.6848H30.1206C30.734 25.6848 31.2311 26.182 31.2311 26.7954C31.2311 27.4088 30.734 27.9059 30.1206 27.9059Z" fill="#026244"/>
<path id="Vector_37" d="M34.8363 32.2372H20.6047C19.9913 32.2372 19.4941 31.7401 19.4941 31.1267C19.4941 30.5133 19.9913 30.0161 20.6047 30.0161H34.8363C35.4497 30.0161 35.9469 30.5133 35.9469 31.1267C35.9469 31.7397 35.4497 32.2372 34.8363 32.2372Z" fill="#026244"/>
<path id="Vector_38" d="M37.9462 36.5685H20.6047C19.9913 36.5685 19.4941 36.0713 19.4941 35.458C19.4941 34.8446 19.9913 34.3474 20.6047 34.3474H37.9462C38.5596 34.3474 39.0568 34.8446 39.0568 35.458C39.0568 36.0713 38.5596 36.5685 37.9462 36.5685Z" fill="#026244"/>
<path id="Vector_39" d="M25.8228 40.9H20.6047C19.9913 40.9 19.4941 40.4029 19.4941 39.7895C19.4941 39.1761 19.9913 38.679 20.6047 38.679H25.8228C26.4362 38.679 26.9333 39.1761 26.9333 39.7895C26.9333 40.4029 26.4362 40.9 25.8228 40.9Z" fill="#026244"/>
<path id="Vector_40" d="M35.5401 40.9H29.5246C28.9112 40.9 28.4141 40.4029 28.4141 39.7895C28.4141 39.1761 28.9112 38.679 29.5246 38.679H35.5401C36.1535 38.679 36.6506 39.1761 36.6506 39.7895C36.6506 40.4029 36.1535 40.9 35.5401 40.9Z" fill="#026244"/>
</g>
<g id="Group_11">
<path id="Vector_41" d="M43.4835 0H2.51699C1.29021 0 0.295898 0.994309 0.295898 2.22109V6.60145H45.705V2.22109C45.7046 0.994309 44.7103 0 43.4835 0Z" fill="#00A793"/>
<g id="Group_12">
<path id="Vector_42" d="M5.63709 3.30048C5.63709 3.76247 5.26247 4.13709 4.80048 4.13709C4.33849 4.13709 3.96387 3.76247 3.96387 3.30048C3.96387 2.83849 4.33849 2.46387 4.80048 2.46387C5.26247 2.46387 5.63709 2.83849 5.63709 3.30048Z" fill="white"/>
<path id="Vector_43" d="M8.71424 3.30048C8.71424 3.76247 8.33961 4.13709 7.87763 4.13709C7.41564 4.13709 7.04102 3.76247 7.04102 3.30048C7.04102 2.83849 7.41564 2.46387 7.87763 2.46387C8.33961 2.46387 8.71424 2.83849 8.71424 3.30048Z" fill="white"/>
<path id="Vector_44" d="M11.7914 3.30048C11.7914 3.76247 11.4168 4.13709 10.9548 4.13709C10.4928 4.13709 10.1182 3.76247 10.1182 3.30048C10.1182 2.83849 10.4928 2.46387 10.9548 2.46387C11.4168 2.46387 11.7914 2.83849 11.7914 3.30048Z" fill="white"/>
</g>
<g id="Group_13">
<path id="Vector_45" d="M42.99 1.65015H20.2345C19.8255 1.65015 19.4941 1.98146 19.4941 2.39051V3.96378C19.4941 4.37283 19.8255 4.70415 20.2345 4.70415H42.99C43.399 4.70415 43.7303 4.37283 43.7303 3.96378V2.39051C43.7303 1.98146 43.399 1.65015 42.99 1.65015Z" fill="white"/>
<path id="Vector_46" d="M42.9897 1.65015H40.1826V4.70415H42.9897C43.3988 4.70415 43.7301 4.37283 43.7301 3.96378V2.39051C43.7301 1.98146 43.3988 1.65015 42.9897 1.65015Z" fill="#FEDE3A"/>
</g>
</g>
</g>
</g>
</svg>
